<?xml version="1.0" encoding="UTF-8" standalone="no"?>
<svg
   id="white_coin"
   data-name="white coin"
   viewBox="0 0 2000 2004.62"
   version="1.1"
   sodipodi:docname="1btc.svg"
   inkscape:version="1.1 (c4e8f9e, 2021-05-24)"
   xmlns:inkscape="http://www.inkscape.org/namespaces/inkscape"
   xmlns:sodipodi="http://sodipodi.sourceforge.net/DTD/sodipodi-0.dtd"
   xmlns:xlink="http://www.w3.org/1999/xlink"
   xmlns="http://www.w3.org/2000/svg"
   xmlns:svg="http://www.w3.org/2000/svg"
   xmlns:rdf="http://www.w3.org/1999/02/22-rdf-syntax-ns#"
   xmlns:cc="http://creativecommons.org/ns#"
   xmlns:dc="http://purl.org/dc/elements/1.1/">
  <sodipodi:namedview
     id="namedview1373"
     pagecolor="#ffffff"
     bordercolor="#666666"
     borderopacity="1.0"
     inkscape:pageshadow="2"
     inkscape:pageopacity="0.0"
     inkscape:pagecheckerboard="0"
     showgrid="false"
     inkscape:zoom="0.31177979"
     inkscape:cx="999.10261"
     inkscape:cy="1002.31"
     inkscape:window-width="1312"
     inkscape:window-height="847"
     inkscape:window-x="101"
     inkscape:window-y="25"
     inkscape:window-maximized="0"
     inkscape:current-layer="white_coin" />
  <defs
     id="defs964">
    <style
       id="style824">.cls-1,.cls-5{fill:#fff;}.cls-1,.cls-11,.cls-6,.cls-7,.cls-8,.cls-9{fill-rule:evenodd;}.cls-100,.cls-101,.cls-102,.cls-103,.cls-104,.cls-105,.cls-106,.cls-107,.cls-108,.cls-109,.cls-110,.cls-111,.cls-112,.cls-113,.cls-114,.cls-115,.cls-116,.cls-117,.cls-118,.cls-119,.cls-120,.cls-121,.cls-122,.cls-123,.cls-124,.cls-125,.cls-126,.cls-127,.cls-128,.cls-129,.cls-130,.cls-131,.cls-16,.cls-17,.cls-18,.cls-19,.cls-2,.cls-20,.cls-21,.cls-22,.cls-23,.cls-24,.cls-25,.cls-26,.cls-27,.cls-28,.cls-29,.cls-3,.cls-30,.cls-31,.cls-32,.cls-33,.cls-34,.cls-35,.cls-36,.cls-37,.cls-38,.cls-39,.cls-40,.cls-41,.cls-42,.cls-43,.cls-44,.cls-45,.cls-46,.cls-47,.cls-48,.cls-49,.cls-50,.cls-51,.cls-52,.cls-53,.cls-54,.cls-55,.cls-56,.cls-57,.cls-58,.cls-59,.cls-60,.cls-61,.cls-62,.cls-63,.cls-64,.cls-65,.cls-66,.cls-67,.cls-68,.cls-69,.cls-70,.cls-71,.cls-72,.cls-73,.cls-74,.cls-75,.cls-76,.cls-77,.cls-78,.cls-79,.cls-80,.cls-81,.cls-82,.cls-83,.cls-84,.cls-85,.cls-86,.cls-87,.cls-88,.cls-89,.cls-90,.cls-91,.cls-92,.cls-93,.cls-94,.cls-95,.cls-96,.cls-97,.cls-98,.cls-99{fill:none;}.cls-2{clip-rule:evenodd;}.cls-13,.cls-4{fill:#1b295e;}.cls-6{fill:url(#linear-gradient);}.cls-7{fill:url(#linear-gradient-2);}.cls-8{fill:url(#linear-gradient-3);}.cls-9{fill:url(#linear-gradient-4);}.cls-10{mask:url(#mask);}.cls-11{fill:url(#linear-gradient-5);}.cls-12{clip-path:url(#clip-path);}.cls-13{stroke:#000;}.cls-100,.cls-101,.cls-102,.cls-103,.cls-104,.cls-105,.cls-106,.cls-107,.cls-108,.cls-109,.cls-110,.cls-111,.cls-112,.cls-113,.cls-114,.cls-115,.cls-116,.cls-117,.cls-118,.cls-119,.cls-120,.cls-121,.cls-122,.cls-123,.cls-124,.cls-125,.cls-126,.cls-127,.cls-128,.cls-129,.cls-13,.cls-130,.cls-131,.cls-16,.cls-17,.cls-18,.cls-19,.cls-20,.cls-21,.cls-22,.cls-23,.cls-24,.cls-25,.cls-26,.cls-27,.cls-28,.cls-29,.cls-30,.cls-31,.cls-32,.cls-33,.cls-34,.cls-35,.cls-36,.cls-37,.cls-38,.cls-39,.cls-40,.cls-41,.cls-42,.cls-43,.cls-44,.cls-45,.cls-46,.cls-47,.cls-48,.cls-49,.cls-50,.cls-51,.cls-52,.cls-53,.cls-54,.cls-55,.cls-56,.cls-57,.cls-58,.cls-59,.cls-60,.cls-61,.cls-62,.cls-63,.cls-64,.cls-65,.cls-66,.cls-67,.cls-68,.cls-69,.cls-70,.cls-71,.cls-72,.cls-73,.cls-74,.cls-75,.cls-76,.cls-77,.cls-78,.cls-79,.cls-80,.cls-81,.cls-82,.cls-83,.cls-84,.cls-85,.cls-86,.cls-87,.cls-88,.cls-89,.cls-90,.cls-91,.cls-92,.cls-93,.cls-94,.cls-95,.cls-96,.cls-97,.cls-98,.cls-99{stroke-miterlimit:10;}.cls-14{opacity:0.8;}.cls-15{clip-path:url(#clip-path-2);}.cls-100,.cls-101,.cls-102,.cls-103,.cls-104,.cls-105,.cls-106,.cls-107,.cls-108,.cls-109,.cls-110,.cls-111,.cls-112,.cls-113,.cls-114,.cls-115,.cls-116,.cls-117,.cls-118,.cls-119,.cls-120,.cls-121,.cls-122,.cls-123,.cls-124,.cls-125,.cls-126,.cls-127,.cls-128,.cls-129,.cls-130,.cls-131,.cls-16,.cls-17,.cls-18,.cls-19,.cls-20,.cls-21,.cls-22,.cls-23,.cls-24,.cls-25,.cls-26,.cls-27,.cls-28,.cls-29,.cls-30,.cls-31,.cls-32,.cls-33,.cls-34,.cls-35,.cls-36,.cls-37,.cls-38,.cls-39,.cls-40,.cls-41,.cls-42,.cls-43,.cls-44,.cls-45,.cls-46,.cls-47,.cls-48,.cls-49,.cls-50,.cls-51,.cls-52,.cls-53,.cls-54,.cls-55,.cls-56,.cls-57,.cls-58,.cls-59,.cls-60,.cls-61,.cls-62,.cls-63,.cls-64,.cls-65,.cls-66,.cls-67,.cls-68,.cls-69,.cls-70,.cls-71,.cls-72,.cls-73,.cls-74,.cls-75,.cls-76,.cls-77,.cls-78,.cls-79,.cls-80,.cls-81,.cls-82,.cls-83,.cls-84,.cls-85,.cls-86,.cls-87,.cls-88,.cls-89,.cls-90,.cls-91,.cls-92,.cls-93,.cls-94,.cls-95,.cls-96,.cls-97,.cls-98,.cls-99{stroke-width:11px;}.cls-16{stroke:url(#linear-gradient-6);}.cls-17{stroke:url(#linear-gradient-7);}.cls-18{stroke:url(#linear-gradient-8);}.cls-19{stroke:url(#linear-gradient-9);}.cls-20{stroke:url(#linear-gradient-10);}.cls-21{stroke:url(#linear-gradient-11);}.cls-22{stroke:url(#linear-gradient-12);}.cls-23{stroke:url(#linear-gradient-13);}.cls-24{stroke:url(#linear-gradient-14);}.cls-25{stroke:url(#linear-gradient-15);}.cls-26{stroke:url(#linear-gradient-16);}.cls-27{stroke:url(#linear-gradient-17);}.cls-28{stroke:url(#linear-gradient-18);}.cls-29{stroke:url(#linear-gradient-19);}.cls-30{stroke:url(#linear-gradient-20);}.cls-31{stroke:url(#linear-gradient-21);}.cls-32{stroke:url(#linear-gradient-22);}.cls-33{stroke:url(#linear-gradient-23);}.cls-34{stroke:url(#linear-gradient-24);}.cls-35{stroke:url(#linear-gradient-25);}.cls-36{stroke:url(#linear-gradient-26);}.cls-37{stroke:url(#linear-gradient-27);}.cls-38{stroke:url(#linear-gradient-28);}.cls-39{stroke:url(#linear-gradient-29);}.cls-40{stroke:url(#linear-gradient-30);}.cls-41{stroke:url(#linear-gradient-31);}.cls-42{stroke:url(#linear-gradient-32);}.cls-43{stroke:url(#linear-gradient-33);}.cls-44{stroke:url(#linear-gradient-34);}.cls-45{stroke:url(#linear-gradient-35);}.cls-46{stroke:url(#linear-gradient-36);}.cls-47{stroke:url(#linear-gradient-37);}.cls-48{stroke:url(#linear-gradient-38);}.cls-49{stroke:url(#linear-gradient-39);}.cls-50{stroke:url(#linear-gradient-40);}.cls-51{stroke:url(#linear-gradient-41);}.cls-52{stroke:url(#linear-gradient-42);}.cls-53{stroke:url(#linear-gradient-43);}.cls-54{stroke:url(#linear-gradient-44);}.cls-55{stroke:url(#linear-gradient-45);}.cls-56{stroke:url(#linear-gradient-46);}.cls-57{stroke:url(#linear-gradient-47);}.cls-58{stroke:url(#linear-gradient-48);}.cls-59{stroke:url(#linear-gradient-49);}.cls-60{stroke:url(#linear-gradient-50);}.cls-61{stroke:url(#linear-gradient-51);}.cls-62{stroke:url(#linear-gradient-52);}.cls-63{stroke:url(#linear-gradient-53);}.cls-64{stroke:url(#linear-gradient-54);}.cls-65{stroke:url(#linear-gradient-55);}.cls-66{stroke:url(#linear-gradient-56);}.cls-67{stroke:url(#linear-gradient-57);}.cls-68{stroke:url(#linear-gradient-58);}.cls-69{stroke:url(#linear-gradient-59);}.cls-70{stroke:url(#linear-gradient-60);}.cls-71{stroke:url(#linear-gradient-61);}.cls-72{stroke:url(#linear-gradient-62);}.cls-73{stroke:url(#linear-gradient-63);}.cls-74{stroke:url(#linear-gradient-64);}.cls-75{stroke:url(#linear-gradient-65);}.cls-76{stroke:url(#linear-gradient-66);}.cls-77{stroke:url(#linear-gradient-67);}.cls-78{stroke:url(#linear-gradient-68);}.cls-79{stroke:url(#linear-gradient-69);}.cls-80{stroke:url(#linear-gradient-70);}.cls-81{stroke:url(#linear-gradient-71);}.cls-82{stroke:url(#linear-gradient-72);}.cls-83{stroke:url(#linear-gradient-73);}.cls-84{stroke:url(#linear-gradient-74);}.cls-85{stroke:url(#linear-gradient-75);}.cls-86{stroke:url(#linear-gradient-76);}.cls-87{stroke:url(#linear-gradient-77);}.cls-88{stroke:url(#linear-gradient-78);}.cls-89{stroke:url(#linear-gradient-79);}.cls-90{stroke:url(#linear-gradient-80);}.cls-91{stroke:url(#linear-gradient-81);}.cls-92{stroke:url(#linear-gradient-82);}.cls-93{stroke:url(#linear-gradient-83);}.cls-94{stroke:url(#linear-gradient-84);}.cls-95{stroke:url(#linear-gradient-85);}.cls-96{stroke:url(#linear-gradient-86);}.cls-97{stroke:url(#linear-gradient-87);}.cls-98{stroke:url(#linear-gradient-88);}.cls-99{stroke:url(#linear-gradient-89);}.cls-100{stroke:url(#linear-gradient-90);}.cls-101{stroke:url(#linear-gradient-91);}.cls-102{stroke:url(#linear-gradient-92);}.cls-103{stroke:url(#linear-gradient-93);}.cls-104{stroke:url(#linear-gradient-94);}.cls-105{stroke:url(#linear-gradient-95);}.cls-106{stroke:url(#linear-gradient-96);}.cls-107{stroke:url(#linear-gradient-97);}.cls-108{stroke:url(#linear-gradient-98);}.cls-109{stroke:url(#linear-gradient-99);}.cls-110{stroke:url(#linear-gradient-100);}.cls-111{stroke:url(#linear-gradient-101);}.cls-112{stroke:url(#linear-gradient-102);}.cls-113{stroke:url(#linear-gradient-103);}.cls-114{stroke:url(#linear-gradient-104);}.cls-115{stroke:url(#linear-gradient-105);}.cls-116{stroke:url(#linear-gradient-106);}.cls-117{stroke:url(#linear-gradient-107);}.cls-118{stroke:url(#linear-gradient-108);}.cls-119{stroke:url(#linear-gradient-109);}.cls-120{stroke:url(#linear-gradient-110);}.cls-121{stroke:url(#linear-gradient-111);}.cls-122{stroke:url(#linear-gradient-112);}.cls-123{stroke:url(#linear-gradient-113);}.cls-124{stroke:url(#linear-gradient-114);}.cls-125{stroke:url(#linear-gradient-115);}.cls-126{stroke:url(#linear-gradient-116);}.cls-127{stroke:url(#linear-gradient-117);}.cls-128{stroke:url(#linear-gradient-118);}.cls-129{stroke:url(#linear-gradient-119);}.cls-130{stroke:url(#linear-gradient-120);}.cls-131{stroke:url(#linear-gradient-121);}</style>
    <linearGradient
       id="linear-gradient"
       x1="1575.88"
       y1="1000.86"
       x2="1857.49"
       y2="1000.86"
       gradientUnits="userSpaceOnUse">
      <stop
         offset="0"
         stop-color="#69fabd"
         id="stop826" />
      <stop
         offset="1"
         stop-color="#00aee9"
         id="stop828" />
    </linearGradient>
    <linearGradient
       id="linear-gradient-2"
       x1="419.55"
       y1="284.33"
       x2="1579.9"
       y2="284.33"
       xlink:href="#linear-gradient" />
    <linearGradient
       id="linear-gradient-3"
       x1="142.88"
       y1="1003.38"
       x2="424.5"
       y2="1003.38"
       xlink:href="#linear-gradient" />
    <linearGradient
       id="linear-gradient-4"
       x1="420.28"
       y1="1719.9"
       x2="1580.64"
       y2="1719.9"
       xlink:href="#linear-gradient" />
    <mask
       id="mask"
       x="0"
       y="0"
       width="2000"
       height="2004.62"
       maskUnits="userSpaceOnUse">
      <path
         class="cls-1"
         d="M0,0H2000V2004.62H0V0"
         id="path834" />
    </mask>
    <linearGradient
       id="linear-gradient-5"
       x1="0"
       y1="1002.31"
       x2="2000"
       y2="1002.31"
       xlink:href="#linear-gradient" />
    <clipPath
       id="clip-path">
      <path
         class="cls-2"
         d="M1166.39,862.14c0,110.08-171.7,96.69-226.25,96.69V764.9c54.55,0,226.25-17.25,226.25,97.24m44.85,301.07c0,120.36-205.75,106.6-271.28,106.6V1056.25c65.53.18,271.28-18.71,271.28,107m135.46-344.6c-11-114.85-109.83-153.38-234.85-165.12V495.19h-96.66V650.41c-25.44,0-51.43,0-77.24.92V495.19h-96.1V654.45H646V758.11s71.39-1.29,70.29,0a50,50,0,0,1,54.92,42.56v436.12a34.26,34.26,0,0,1-36.27,32.12h-.34c1.28,1.1-70.29,0-70.29,0l-19.22,115.78H840.2v161.82h96.65V1387.05h77.25v158.7h96.83v-160c163.28-9.91,277.14-50.28,291.41-203.47C1413.88,1059,1356,1004,1263.59,981.76c56.2-28.62,91.53-79.08,83.11-163.11"
         id="path838" />
    </clipPath>
    <clipPath
       id="clip-path-2">
      <rect
         class="cls-3"
         x="562.73"
         y="443.82"
         width="929.01"
         height="1203.04"
         id="rect841" />
    </clipPath>
    <linearGradient
       id="linear-gradient-6"
       x1="-41.86"
       y1="913.7"
       x2="147.23"
       y2="724.6"
       gradientUnits="userSpaceOnUse">
      <stop
         offset="0"
         stop-color="#00aee9"
         id="stop844" />
      <stop
         offset="1"
         stop-color="#69fabd"
         id="stop846" />
    </linearGradient>
    <linearGradient
       id="linear-gradient-7"
       x1="36.6"
       y1="599.83"
       x2="225.69"
       y2="410.74"
       xlink:href="#linear-gradient-6" />
    <linearGradient
       id="linear-gradient-8"
       x1="134.7"
       y1="501.74"
       x2="323.79"
       y2="312.64"
       xlink:href="#linear-gradient-6" />
    <linearGradient
       id="linear-gradient-9"
       x1="56.23"
       y1="815.62"
       x2="245.32"
       y2="626.52"
       xlink:href="#linear-gradient-6" />
    <linearGradient
       id="linear-gradient-10"
       x1="154.31"
       y1="717.54"
       x2="343.4"
       y2="528.45"
       xlink:href="#linear-gradient-6" />
    <linearGradient
       id="linear-gradient-11"
       x1="252.4"
       y1="619.44"
       x2="441.49"
       y2="430.34"
       xlink:href="#linear-gradient-6" />
    <linearGradient
       id="linear-gradient-12"
       x1="350.48"
       y1="521.36"
       x2="539.57"
       y2="332.27"
       xlink:href="#linear-gradient-6" />
    <linearGradient
       id="linear-gradient-13"
       x1="75.84"
       y1="1031.41"
       x2="264.93"
       y2="842.31"
       xlink:href="#linear-gradient-6" />
    <linearGradient
       id="linear-gradient-14"
       x1="-2.63"
       y1="1345.27"
       x2="186.46"
       y2="1156.18"
       xlink:href="#linear-gradient-6" />
    <linearGradient
       id="linear-gradient-15"
       x1="95.46"
       y1="1247.2"
       x2="284.55"
       y2="1058.1"
       xlink:href="#linear-gradient-6" />
    <linearGradient
       id="linear-gradient-16"
       x1="193.54"
       y1="1149.1"
       x2="382.63"
       y2="960.01"
       xlink:href="#linear-gradient-6" />
    <linearGradient
       id="linear-gradient-17"
       x1="16.99"
       y1="1561.06"
       x2="206.08"
       y2="1371.97"
       xlink:href="#linear-gradient-6" />
    <linearGradient
       id="linear-gradient-18"
       x1="115.08"
       y1="1462.97"
       x2="304.17"
       y2="1273.88"
       xlink:href="#linear-gradient-6" />
    <linearGradient
       id="linear-gradient-19"
       x1="213.17"
       y1="1364.89"
       x2="402.26"
       y2="1175.8"
       xlink:href="#linear-gradient-6" />
    <linearGradient
       id="linear-gradient-20"
       x1="311.25"
       y1="1266.8"
       x2="500.34"
       y2="1077.71"
       xlink:href="#linear-gradient-6" />
    <linearGradient
       id="linear-gradient-21"
       x1="134.7"
       y1="1678.76"
       x2="323.79"
       y2="1489.67"
       xlink:href="#linear-gradient-6" />
    <linearGradient
       id="linear-gradient-22"
       x1="232.78"
       y1="1580.67"
       x2="421.87"
       y2="1391.58"
       xlink:href="#linear-gradient-6" />
    <linearGradient
       id="linear-gradient-23"
       x1="330.86"
       y1="1482.59"
       x2="519.95"
       y2="1293.5"
       xlink:href="#linear-gradient-6" />
    <linearGradient
       id="linear-gradient-24"
       x1="428.95"
       y1="1384.51"
       x2="618.04"
       y2="1195.42"
       xlink:href="#linear-gradient-6" />
    <linearGradient
       id="linear-gradient-25"
       x1="173.93"
       y1="933.33"
       x2="363.02"
       y2="744.24"
       xlink:href="#linear-gradient-6" />
    <linearGradient
       id="linear-gradient-26"
       x1="272.02"
       y1="835.24"
       x2="461.11"
       y2="646.14"
       xlink:href="#linear-gradient-6" />
    <linearGradient
       id="linear-gradient-27"
       x1="370.1"
       y1="737.15"
       x2="559.19"
       y2="548.05"
       xlink:href="#linear-gradient-6" />
    <linearGradient
       id="linear-gradient-28"
       x1="468.19"
       y1="639.06"
       x2="657.28"
       y2="449.96"
       xlink:href="#linear-gradient-6" />
    <linearGradient
       id="linear-gradient-29"
       x1="291.64"
       y1="1051.01"
       x2="480.73"
       y2="861.92"
       xlink:href="#linear-gradient-6" />
    <linearGradient
       id="linear-gradient-30"
       x1="389.71"
       y1="952.94"
       x2="578.8"
       y2="763.84"
       xlink:href="#linear-gradient-6" />
    <linearGradient
       id="linear-gradient-31"
       x1="487.81"
       y1="854.85"
       x2="676.9"
       y2="665.75"
       xlink:href="#linear-gradient-6" />
    <linearGradient
       id="linear-gradient-32"
       x1="585.89"
       y1="756.76"
       x2="774.98"
       y2="567.66"
       xlink:href="#linear-gradient-6" />
    <linearGradient
       id="linear-gradient-33"
       x1="409.34"
       y1="1168.73"
       x2="598.43"
       y2="979.63"
       xlink:href="#linear-gradient-6" />
    <linearGradient
       id="linear-gradient-34"
       x1="507.42"
       y1="1070.65"
       x2="696.51"
       y2="881.55"
       xlink:href="#linear-gradient-6" />
    <linearGradient
       id="linear-gradient-35"
       x1="605.51"
       y1="972.54"
       x2="794.6"
       y2="783.45"
       xlink:href="#linear-gradient-6" />
    <linearGradient
       id="linear-gradient-36"
       x1="703.58"
       y1="874.47"
       x2="892.68"
       y2="685.37"
       xlink:href="#linear-gradient-6" />
    <linearGradient
       id="linear-gradient-37"
       x1="527.04"
       y1="1286.44"
       x2="716.13"
       y2="1097.34"
       xlink:href="#linear-gradient-6" />
    <linearGradient
       id="linear-gradient-38"
       x1="625.13"
       y1="1188.35"
       x2="814.22"
       y2="999.25"
       xlink:href="#linear-gradient-6" />
    <linearGradient
       id="linear-gradient-39"
       x1="723.21"
       y1="1090.26"
       x2="912.3"
       y2="901.16"
       xlink:href="#linear-gradient-6" />
    <linearGradient
       id="linear-gradient-40"
       x1="821.3"
       y1="992.17"
       x2="1010.39"
       y2="803.07"
       xlink:href="#linear-gradient-6" />
    <linearGradient
       id="linear-gradient-41"
       x1="252.4"
       y1="1796.47"
       x2="441.49"
       y2="1607.38"
       xlink:href="#linear-gradient-6" />
    <linearGradient
       id="linear-gradient-42"
       x1="350.48"
       y1="1698.38"
       x2="539.57"
       y2="1509.29"
       xlink:href="#linear-gradient-6" />
    <linearGradient
       id="linear-gradient-43"
       x1="448.57"
       y1="1600.3"
       x2="637.66"
       y2="1411.21"
       xlink:href="#linear-gradient-6" />
    <linearGradient
       id="linear-gradient-44"
       x1="546.64"
       y1="1502.21"
       x2="735.74"
       y2="1313.12"
       xlink:href="#linear-gradient-6" />
    <linearGradient
       id="linear-gradient-45"
       x1="566.28"
       y1="1718"
       x2="755.37"
       y2="1528.91"
       xlink:href="#linear-gradient-6" />
    <linearGradient
       id="linear-gradient-46"
       x1="664.36"
       y1="1619.91"
       x2="853.45"
       y2="1430.82"
       xlink:href="#linear-gradient-6" />
    <linearGradient
       id="linear-gradient-47"
       x1="644.75"
       y1="1404.12"
       x2="833.84"
       y2="1215.03"
       xlink:href="#linear-gradient-6" />
    <linearGradient
       id="linear-gradient-48"
       x1="742.81"
       y1="1306.04"
       x2="931.91"
       y2="1116.95"
       xlink:href="#linear-gradient-6" />
    <linearGradient
       id="linear-gradient-49"
       x1="840.92"
       y1="1207.95"
       x2="1030.01"
       y2="1018.86"
       xlink:href="#linear-gradient-6" />
    <linearGradient
       id="linear-gradient-50"
       x1="938.99"
       y1="1109.86"
       x2="1128.09"
       y2="920.77"
       xlink:href="#linear-gradient-6" />
    <linearGradient
       id="linear-gradient-51"
       x1="762.45"
       y1="1521.83"
       x2="951.54"
       y2="1332.74"
       xlink:href="#linear-gradient-6" />
    <linearGradient
       id="linear-gradient-52"
       x1="860.52"
       y1="1423.76"
       x2="1049.62"
       y2="1234.66"
       xlink:href="#linear-gradient-6" />
    <linearGradient
       id="linear-gradient-53"
       x1="958.61"
       y1="1325.65"
       x2="1147.71"
       y2="1136.56"
       xlink:href="#linear-gradient-6" />
    <linearGradient
       id="linear-gradient-54"
       x1="1056.69"
       y1="1227.57"
       x2="1245.79"
       y2="1038.48"
       xlink:href="#linear-gradient-6" />
    <linearGradient
       id="linear-gradient-55"
       x1="880.14"
       y1="1639.54"
       x2="1069.24"
       y2="1450.45"
       xlink:href="#linear-gradient-6" />
    <linearGradient
       id="linear-gradient-56"
       x1="978.24"
       y1="1541.45"
       x2="1167.33"
       y2="1352.36"
       xlink:href="#linear-gradient-6" />
    <linearGradient
       id="linear-gradient-57"
       x1="1076.31"
       y1="1443.36"
       x2="1265.41"
       y2="1254.27"
       xlink:href="#linear-gradient-6" />
    <linearGradient
       id="linear-gradient-58"
       x1="1174.4"
       y1="1345.27"
       x2="1363.5"
       y2="1156.18"
       xlink:href="#linear-gradient-6" />
    <linearGradient
       id="linear-gradient-59"
       x1="997.86"
       y1="1757.23"
       x2="1186.95"
       y2="1568.14"
       xlink:href="#linear-gradient-6" />
    <linearGradient
       id="linear-gradient-60"
       x1="1095.92"
       y1="1659.15"
       x2="1285.01"
       y2="1470.06"
       xlink:href="#linear-gradient-6" />
    <linearGradient
       id="linear-gradient-61"
       x1="1194.02"
       y1="1561.06"
       x2="1383.12"
       y2="1371.97"
       xlink:href="#linear-gradient-6" />
    <linearGradient
       id="linear-gradient-62"
       x1="1292.1"
       y1="1462.97"
       x2="1481.2"
       y2="1273.88"
       xlink:href="#linear-gradient-6" />
    <linearGradient
       id="linear-gradient-63"
       x1="1311.72"
       y1="1678.76"
       x2="1500.82"
       y2="1489.67"
       xlink:href="#linear-gradient-6" />
    <linearGradient
       id="linear-gradient-64"
       x1="1409.8"
       y1="1580.68"
       x2="1598.89"
       y2="1391.59"
       xlink:href="#linear-gradient-6" />
    <linearGradient
       id="linear-gradient-65"
       x1="1429.42"
       y1="1796.47"
       x2="1618.51"
       y2="1607.38"
       xlink:href="#linear-gradient-6" />
    <linearGradient
       id="linear-gradient-66"
       x1="1527.51"
       y1="1698.38"
       x2="1716.6"
       y2="1509.29"
       xlink:href="#linear-gradient-6" />
    <linearGradient
       id="linear-gradient-67"
       x1="448.57"
       y1="423.27"
       x2="637.66"
       y2="234.18"
       xlink:href="#linear-gradient-6" />
    <linearGradient
       id="linear-gradient-68"
       x1="566.28"
       y1="540.98"
       x2="755.37"
       y2="351.89"
       xlink:href="#linear-gradient-6" />
    <linearGradient
       id="linear-gradient-69"
       x1="683.96"
       y1="658.68"
       x2="873.06"
       y2="469.58"
       xlink:href="#linear-gradient-6" />
    <linearGradient
       id="linear-gradient-70"
       x1="782.05"
       y1="560.6"
       x2="971.15"
       y2="371.51"
       xlink:href="#linear-gradient-6" />
    <linearGradient
       id="linear-gradient-71"
       x1="880.14"
       y1="462.51"
       x2="1069.24"
       y2="273.42"
       xlink:href="#linear-gradient-6" />
    <linearGradient
       id="linear-gradient-72"
       x1="801.67"
       y1="776.38"
       x2="990.77"
       y2="587.28"
       xlink:href="#linear-gradient-6" />
    <linearGradient
       id="linear-gradient-73"
       x1="899.75"
       y1="678.3"
       x2="1088.85"
       y2="489.21"
       xlink:href="#linear-gradient-6" />
    <linearGradient
       id="linear-gradient-74"
       x1="997.86"
       y1="580.21"
       x2="1186.95"
       y2="391.11"
       xlink:href="#linear-gradient-6" />
    <linearGradient
       id="linear-gradient-75"
       x1="919.39"
       y1="894.09"
       x2="1108.48"
       y2="704.99"
       xlink:href="#linear-gradient-6" />
    <linearGradient
       id="linear-gradient-76"
       x1="1017.46"
       y1="796"
       x2="1206.56"
       y2="606.9"
       xlink:href="#linear-gradient-6" />
    <linearGradient
       id="linear-gradient-77"
       x1="1115.55"
       y1="697.91"
       x2="1304.65"
       y2="508.81"
       xlink:href="#linear-gradient-6" />
    <linearGradient
       id="linear-gradient-78"
       x1="1213.63"
       y1="599.83"
       x2="1402.73"
       y2="410.74"
       xlink:href="#linear-gradient-6" />
    <linearGradient
       id="linear-gradient-79"
       x1="1311.72"
       y1="501.74"
       x2="1500.82"
       y2="312.64"
       xlink:href="#linear-gradient-6" />
    <linearGradient
       id="linear-gradient-80"
       x1="1037.07"
       y1="1011.79"
       x2="1226.17"
       y2="822.69"
       xlink:href="#linear-gradient-6" />
    <linearGradient
       id="linear-gradient-81"
       x1="1135.16"
       y1="913.71"
       x2="1324.26"
       y2="724.61"
       xlink:href="#linear-gradient-6" />
    <linearGradient
       id="linear-gradient-82"
       x1="1233.25"
       y1="815.62"
       x2="1422.35"
       y2="626.52"
       xlink:href="#linear-gradient-6" />
    <linearGradient
       id="linear-gradient-83"
       x1="1331.33"
       y1="717.53"
       x2="1520.42"
       y2="528.43"
       xlink:href="#linear-gradient-6" />
    <linearGradient
       id="linear-gradient-84"
       x1="1154.78"
       y1="1129.48"
       x2="1343.88"
       y2="940.39"
       xlink:href="#linear-gradient-6" />
    <linearGradient
       id="linear-gradient-85"
       x1="1252.86"
       y1="1031.41"
       x2="1441.95"
       y2="842.31"
       xlink:href="#linear-gradient-6" />
    <linearGradient
       id="linear-gradient-86"
       x1="1350.96"
       y1="933.32"
       x2="1540.06"
       y2="744.22"
       xlink:href="#linear-gradient-6" />
    <linearGradient
       id="linear-gradient-87"
       x1="1449.04"
       y1="835.23"
       x2="1638.13"
       y2="646.13"
       xlink:href="#linear-gradient-6" />
    <linearGradient
       id="linear-gradient-88"
       x1="1272.49"
       y1="1247.2"
       x2="1461.59"
       y2="1058.1"
       xlink:href="#linear-gradient-6" />
    <linearGradient
       id="linear-gradient-89"
       x1="1370.57"
       y1="1149.1"
       x2="1559.67"
       y2="960.01"
       xlink:href="#linear-gradient-6" />
    <linearGradient
       id="linear-gradient-90"
       x1="1468.66"
       y1="1051.01"
       x2="1657.76"
       y2="861.92"
       xlink:href="#linear-gradient-6" />
    <linearGradient
       id="linear-gradient-91"
       x1="1566.74"
       y1="952.94"
       x2="1755.83"
       y2="763.84"
       xlink:href="#linear-gradient-6" />
    <linearGradient
       id="linear-gradient-92"
       x1="1390.18"
       y1="1364.89"
       x2="1579.27"
       y2="1175.8"
       xlink:href="#linear-gradient-6" />
    <linearGradient
       id="linear-gradient-93"
       x1="1488.27"
       y1="1266.82"
       x2="1677.36"
       y2="1077.72"
       xlink:href="#linear-gradient-6" />
    <linearGradient
       id="linear-gradient-94"
       x1="1586.36"
       y1="1168.73"
       x2="1775.45"
       y2="979.63"
       xlink:href="#linear-gradient-6" />
    <linearGradient
       id="linear-gradient-95"
       x1="1684.44"
       y1="1070.64"
       x2="1873.53"
       y2="881.54"
       xlink:href="#linear-gradient-6" />
    <linearGradient
       id="linear-gradient-96"
       x1="1429.42"
       y1="619.44"
       x2="1618.51"
       y2="430.34"
       xlink:href="#linear-gradient-6" />
    <linearGradient
       id="linear-gradient-97"
       x1="1527.5"
       y1="521.36"
       x2="1716.59"
       y2="332.27"
       xlink:href="#linear-gradient-6" />
    <linearGradient
       id="linear-gradient-98"
       x1="1625.6"
       y1="423.27"
       x2="1814.7"
       y2="234.18"
       xlink:href="#linear-gradient-6" />
    <linearGradient
       id="linear-gradient-99"
       x1="1547.13"
       y1="737.15"
       x2="1736.23"
       y2="548.05"
       xlink:href="#linear-gradient-6" />
    <linearGradient
       id="linear-gradient-100"
       x1="1645.21"
       y1="639.06"
       x2="1834.3"
       y2="449.96"
       xlink:href="#linear-gradient-6" />
    <linearGradient
       id="linear-gradient-101"
       x1="1743.29"
       y1="540.98"
       x2="1932.38"
       y2="351.89"
       xlink:href="#linear-gradient-6" />
    <linearGradient
       id="linear-gradient-102"
       x1="1664.83"
       y1="854.85"
       x2="1853.92"
       y2="665.75"
       xlink:href="#linear-gradient-6" />
    <linearGradient
       id="linear-gradient-103"
       x1="1762.92"
       y1="756.77"
       x2="1952.01"
       y2="567.67"
       xlink:href="#linear-gradient-6" />
    <linearGradient
       id="linear-gradient-104"
       x1="1861"
       y1="658.68"
       x2="2050.09"
       y2="469.58"
       xlink:href="#linear-gradient-6" />
    <linearGradient
       id="linear-gradient-105"
       x1="1959.09"
       y1="560.59"
       x2="2148.18"
       y2="371.49"
       xlink:href="#linear-gradient-6" />
    <linearGradient
       id="linear-gradient-106"
       x1="1782.53"
       y1="972.54"
       x2="1971.62"
       y2="783.45"
       xlink:href="#linear-gradient-6" />
    <linearGradient
       id="linear-gradient-107"
       x1="1880.61"
       y1="874.47"
       x2="2069.7"
       y2="685.37"
       xlink:href="#linear-gradient-6" />
    <linearGradient
       id="linear-gradient-108"
       x1="1507.89"
       y1="1482.59"
       x2="1696.98"
       y2="1293.5"
       xlink:href="#linear-gradient-6" />
    <linearGradient
       id="linear-gradient-109"
       x1="1605.97"
       y1="1384.51"
       x2="1795.06"
       y2="1195.42"
       xlink:href="#linear-gradient-6" />
    <linearGradient
       id="linear-gradient-110"
       x1="1704.07"
       y1="1286.42"
       x2="1893.16"
       y2="1097.33"
       xlink:href="#linear-gradient-6" />
    <linearGradient
       id="linear-gradient-111"
       x1="1802.15"
       y1="1188.33"
       x2="1991.24"
       y2="999.24"
       xlink:href="#linear-gradient-6" />
    <linearGradient
       id="linear-gradient-112"
       x1="1625.6"
       y1="1600.3"
       x2="1814.7"
       y2="1411.21"
       xlink:href="#linear-gradient-6" />
    <linearGradient
       id="linear-gradient-113"
       x1="1723.68"
       y1="1502.21"
       x2="1912.77"
       y2="1313.12"
       xlink:href="#linear-gradient-6" />
    <linearGradient
       id="linear-gradient-114"
       x1="1821.77"
       y1="1404.12"
       x2="2010.86"
       y2="1215.03"
       xlink:href="#linear-gradient-6" />
    <linearGradient
       id="linear-gradient-115"
       x1="1919.85"
       y1="1306.04"
       x2="2108.94"
       y2="1116.95"
       xlink:href="#linear-gradient-6" />
    <linearGradient
       id="linear-gradient-116"
       x1="1743.29"
       y1="1718"
       x2="1932.38"
       y2="1528.91"
       xlink:href="#linear-gradient-6" />
    <linearGradient
       id="linear-gradient-117"
       x1="1841.38"
       y1="1619.92"
       x2="2030.47"
       y2="1430.83"
       xlink:href="#linear-gradient-6" />
    <linearGradient
       id="linear-gradient-118"
       x1="1939.47"
       y1="1521.83"
       x2="2128.56"
       y2="1332.74"
       xlink:href="#linear-gradient-6" />
    <linearGradient
       id="linear-gradient-119"
       x1="2037.55"
       y1="1423.74"
       x2="2226.64"
       y2="1234.65"
       xlink:href="#linear-gradient-6" />
    <linearGradient
       id="linear-gradient-120"
       x1="1900.24"
       y1="1090.26"
       x2="2089.33"
       y2="901.16"
       xlink:href="#linear-gradient-6" />
    <linearGradient
       id="linear-gradient-121"
       x1="1998.32"
       y1="992.17"
       x2="2187.41"
       y2="803.07"
       xlink:href="#linear-gradient-6" />
  </defs>
  <title
     id="title966">white coin</title>
  <g
     id="BG_copy"
     data-name="BG copy">
    <circle
       class="cls-5"
       cx="991.77"
       cy="991.77"
       r="979.58"
       id="circle971" />
  </g>
  <g
     id="Layer_1_copy_11"
     data-name="Layer 1 copy 11">
    <path
       class="cls-6"
       d="M1630.79,420.7l-54.91,55c271.59,297.7,271.59,754,0,1051.66l54.91,55c302.27-328.47,302.27-834.55,0-1163"
       id="path974" />
    <path
       class="cls-7"
       d="M475.75,425.48c297-272.24,752.22-272.24,1049.24,0l54.91-55.05c-327.73-303-832.62-303-1160.35,0"
       id="path976" />
    <path
       class="cls-8"
       d="M424.5,1528c-271.26-297.63-271.26-753.49,0-1051.12l-54.92-55c-302.27,328.49-302.27,834.54,0,1163"
       id="path978" />
    <path
       class="cls-9"
       d="M1524.44,1578.77c-297,272.24-752.23,272.24-1049.24,0l-54.92,55c327.74,303,832.62,303,1160.36,0"
       id="path980" />
    <g
       class="cls-10"
       mask="url(#mask)"
       id="g984">
      <path
         class="cls-11"
         d="M999.82,78.16C490.9,78.47,78.58,492.22,78.89,1002.31s413.11,923.36,922,923.05c508.56-.3,920.72-413.51,920.92-923.23-.61-510-413.18-923.22-922-923.42Zm0,1926.46C447.54,2004.53-.11,1555.7,0,1002.13S447.9-.11,1000.18,0,1999.91,448.7,2000,1002.13C1999.4,1555.53,1552,2004,999.82,2004.62Z"
         id="path982" />
    </g>
  </g>
  <g
     class="cls-12"
     clip-path="url(#clip-path)"
     id="g1225">
    <rect
       class="cls-13"
       x="579.9"
       y="487.2"
       width="914.92"
       height="1067.29"
       id="rect987" />
    <g
       class="cls-14"
       id="g1223">
      <g
         class="cls-15"
         clip-path="url(#clip-path-2)"
         id="g1221">
        <path
           class="cls-16"
           d="M209.62,819.15h0A58.85,58.85,0,0,1,150.77,878H-45.4a58.85,58.85,0,0,1-58.85-58.85h0A58.85,58.85,0,0,1-45.4,760.3H150.77A58.85,58.85,0,0,1,209.62,819.15Z"
           id="path989" />
        <path
           class="cls-17"
           d="M288.08,505.28h0a58.85,58.85,0,0,1-58.85,58.85H33.06A58.85,58.85,0,0,1-25.8,505.28h0a58.85,58.85,0,0,1,58.86-58.85H229.23A58.85,58.85,0,0,1,288.08,505.28Z"
           id="path991" />
        <path
           class="cls-18"
           d="M229.24,564.13h0a58.85,58.85,0,0,1-58.85-58.85V309.11a58.85,58.85,0,0,1,58.85-58.86h0a58.85,58.85,0,0,1,58.85,58.86V505.28A58.85,58.85,0,0,1,229.24,564.13Z"
           id="path993" />
        <path
           class="cls-19"
           d="M150.78,878h0a58.85,58.85,0,0,1-58.85-58.85V623a58.85,58.85,0,0,1,58.85-58.86h0A58.85,58.85,0,0,1,209.62,623V819.16A58.84,58.84,0,0,1,150.78,878Z"
           id="path995" />
        <path
           class="cls-20"
           d="M405.79,623h0a58.85,58.85,0,0,1-58.85,58.85H150.77A58.85,58.85,0,0,1,91.91,623h0a58.85,58.85,0,0,1,58.86-58.85H346.94A58.85,58.85,0,0,1,405.79,623Z"
           id="path997" />
        <path
           class="cls-21"
           d="M346.94,681.83h0A58.85,58.85,0,0,1,288.09,623V426.81A58.85,58.85,0,0,1,346.94,368h0a58.85,58.85,0,0,1,58.85,58.86V623A58.85,58.85,0,0,1,346.94,681.83Z"
           id="path999" />
        <path
           class="cls-22"
           d="M602,426.81h0a58.85,58.85,0,0,1-58.85,58.85H346.94a58.85,58.85,0,0,1-58.86-58.85h0A58.85,58.85,0,0,1,346.94,368H543.11A58.85,58.85,0,0,1,602,426.81Z"
           id="path1001" />
        <path
           class="cls-23"
           d="M327.32,936.86h0a58.85,58.85,0,0,1-58.85,58.85H72.3a58.85,58.85,0,0,1-58.86-58.85h0A58.85,58.85,0,0,1,72.3,878H268.47A58.85,58.85,0,0,1,327.32,936.86Z"
           id="path1003" />
        <path
           class="cls-24"
           d="M248.85,1250.73h0A58.85,58.85,0,0,1,190,1309.58H-6.17A58.85,58.85,0,0,1-65,1250.73h0a58.85,58.85,0,0,1,58.86-58.85H190A58.85,58.85,0,0,1,248.85,1250.73Z"
           id="path1005" />
        <path
           class="cls-25"
           d="M190,1309.59h0a58.85,58.85,0,0,1-58.85-58.86V1054.56A58.85,58.85,0,0,1,190,995.71h0a58.85,58.85,0,0,1,58.85,58.85v196.17A58.85,58.85,0,0,1,190,1309.59Z"
           id="path1007" />
        <path
           class="cls-26"
           d="M445,1054.56h0a58.85,58.85,0,0,1-58.85,58.85H190a58.85,58.85,0,0,1-58.86-58.85h0A58.85,58.85,0,0,1,190,995.71H386.17A58.85,58.85,0,0,1,445,1054.56Z"
           id="path1009" />
        <path
           class="cls-27"
           d="M111.53,1623.46h0a58.85,58.85,0,0,1-58.85-58.86V1368.43a58.85,58.85,0,0,1,58.85-58.85h0a58.85,58.85,0,0,1,58.85,58.85V1564.6A58.85,58.85,0,0,1,111.53,1623.46Z"
           id="path1011" />
        <rect
           class="cls-28"
           x="52.68"
           y="1309.58"
           width="313.88"
           height="117.7"
           rx="58.85"
           id="rect1013" />
        <path
           class="cls-29"
           d="M307.71,1427.29h0a58.85,58.85,0,0,1-58.84-58.86V1172.26a58.84,58.84,0,0,1,58.84-58.85h0a58.85,58.85,0,0,1,58.85,58.85v196.17A58.85,58.85,0,0,1,307.71,1427.29Z"
           id="path1015" />
        <path
           class="cls-30"
           d="M562.73,1172.26h0a58.85,58.85,0,0,1-58.85,58.85H307.71a58.85,58.85,0,0,1-58.86-58.85h0a58.85,58.85,0,0,1,58.86-58.85H503.88A58.85,58.85,0,0,1,562.73,1172.26Z"
           id="path1017" />
        <path
           class="cls-31"
           d="M229.24,1741.16h0a58.85,58.85,0,0,1-58.85-58.86V1486.13a58.85,58.85,0,0,1,58.85-58.85h0a58.85,58.85,0,0,1,58.85,58.85V1682.3A58.85,58.85,0,0,1,229.24,1741.16Z"
           id="path1019" />
        <path
           class="cls-32"
           d="M484.26,1486.13h0A58.84,58.84,0,0,1,425.41,1545H229.24a58.85,58.85,0,0,1-58.86-58.84h0a58.85,58.85,0,0,1,58.86-58.85H425.41A58.85,58.85,0,0,1,484.26,1486.13Z"
           id="path1021" />
        <path
           class="cls-33"
           d="M425.4,1545h0a58.85,58.85,0,0,1-58.85-58.86V1290a58.85,58.85,0,0,1,58.85-58.85h0A58.85,58.85,0,0,1,484.25,1290v196.17A58.85,58.85,0,0,1,425.4,1545Z"
           id="path1023" />
        <path
           class="cls-34"
           d="M680.43,1290h0a58.85,58.85,0,0,1-58.85,58.85H425.41A58.85,58.85,0,0,1,366.55,1290h0a58.85,58.85,0,0,1,58.86-58.85H621.58A58.85,58.85,0,0,1,680.43,1290Z"
           id="path1025" />
        <path
           class="cls-35"
           d="M268.47,995.72h0a58.85,58.85,0,0,1-58.85-58.85V740.7a58.85,58.85,0,0,1,58.85-58.86h0a58.85,58.85,0,0,1,58.85,58.86V936.87A58.85,58.85,0,0,1,268.47,995.72Z"
           id="path1027" />
        <path
           class="cls-36"
           d="M523.5,740.69h0a58.85,58.85,0,0,1-58.85,58.85H268.48a58.86,58.86,0,0,1-58.86-58.85h0a58.86,58.86,0,0,1,58.86-58.85H464.65A58.85,58.85,0,0,1,523.5,740.69Z"
           id="path1029" />
        <path
           class="cls-37"
           d="M464.64,799.54h0a58.85,58.85,0,0,1-58.85-58.85V544.52a58.85,58.85,0,0,1,58.85-58.86h0a58.85,58.85,0,0,1,58.85,58.86V740.69A58.85,58.85,0,0,1,464.64,799.54Z"
           id="path1031" />
        <path
           class="cls-38"
           d="M719.67,544.51h0a58.85,58.85,0,0,1-58.85,58.85H464.65a58.85,58.85,0,0,1-58.86-58.85h0a58.85,58.85,0,0,1,58.86-58.85H660.82A58.85,58.85,0,0,1,719.67,544.51Z"
           id="path1033" />
        <path
           class="cls-39"
           d="M386.18,1113.41h0a58.85,58.85,0,0,1-58.84-58.86V858.38a58.84,58.84,0,0,1,58.84-58.85h0A58.85,58.85,0,0,1,445,858.38v196.17A58.85,58.85,0,0,1,386.18,1113.41Z"
           id="path1035" />
        <path
           class="cls-40"
           d="M641.19,858.39h0a58.85,58.85,0,0,1-58.85,58.85H386.17a58.85,58.85,0,0,1-58.86-58.85h0a58.85,58.85,0,0,1,58.86-58.85H582.34A58.85,58.85,0,0,1,641.19,858.39Z"
           id="path1037" />
        <path
           class="cls-41"
           d="M582.35,917.24h0a58.85,58.85,0,0,1-58.85-58.86V662.22a58.85,58.85,0,0,1,58.85-58.86h0a58.85,58.85,0,0,1,58.85,58.86V858.38A58.85,58.85,0,0,1,582.35,917.24Z"
           id="path1039" />
        <path
           class="cls-42"
           d="M837.37,662.21h0a58.85,58.85,0,0,1-58.85,58.85H582.35a58.85,58.85,0,0,1-58.86-58.85h0a58.85,58.85,0,0,1,58.86-58.85H778.52A58.85,58.85,0,0,1,837.37,662.21Z"
           id="path1041" />
        <path
           class="cls-43"
           d="M503.88,1231.12h0A58.85,58.85,0,0,1,445,1172.26V976.09a58.85,58.85,0,0,1,58.85-58.85h0a58.85,58.85,0,0,1,58.85,58.85v196.17A58.85,58.85,0,0,1,503.88,1231.12Z"
           id="path1043" />
        <path
           class="cls-44"
           d="M758.9,976.1h0A58.85,58.85,0,0,1,700.05,1035H503.88A58.85,58.85,0,0,1,445,976.1h0a58.85,58.85,0,0,1,58.86-58.85H700.05A58.85,58.85,0,0,1,758.9,976.1Z"
           id="path1045" />
        <path
           class="cls-45"
           d="M700.05,1034.94h0a58.85,58.85,0,0,1-58.85-58.86V779.91a58.85,58.85,0,0,1,58.85-58.85h0a58.85,58.85,0,0,1,58.85,58.85V976.08A58.85,58.85,0,0,1,700.05,1034.94Z"
           id="path1047" />
        <path
           class="cls-46"
           d="M955.07,779.92h0a58.85,58.85,0,0,1-58.85,58.85H700.05a58.85,58.85,0,0,1-58.86-58.85h0a58.85,58.85,0,0,1,58.86-58.85H896.22A58.85,58.85,0,0,1,955.07,779.92Z"
           id="path1049" />
        <path
           class="cls-47"
           d="M621.58,1348.83h0A58.85,58.85,0,0,1,562.73,1290V1093.81A58.85,58.85,0,0,1,621.58,1035h0a58.85,58.85,0,0,1,58.85,58.86V1290A58.85,58.85,0,0,1,621.58,1348.83Z"
           id="path1051" />
        <path
           class="cls-48"
           d="M876.61,1093.8h0a58.85,58.85,0,0,1-58.85,58.85H621.59a58.85,58.85,0,0,1-58.86-58.85h0A58.85,58.85,0,0,1,621.59,1035H817.76A58.85,58.85,0,0,1,876.61,1093.8Z"
           id="path1053" />
        <path
           class="cls-49"
           d="M817.75,1152.65h0a58.85,58.85,0,0,1-58.85-58.86V897.62a58.85,58.85,0,0,1,58.85-58.85h0a58.85,58.85,0,0,1,58.85,58.85v196.17A58.85,58.85,0,0,1,817.75,1152.65Z"
           id="path1055" />
        <path
           class="cls-50"
           d="M1072.78,897.62h0a58.85,58.85,0,0,1-58.85,58.85H817.76a58.85,58.85,0,0,1-58.86-58.85h0a58.85,58.85,0,0,1,58.86-58.85h196.17A58.85,58.85,0,0,1,1072.78,897.62Z"
           id="path1057" />
        <path
           class="cls-51"
           d="M346.94,1858.87h0A58.85,58.85,0,0,1,288.09,1800V1603.84A58.85,58.85,0,0,1,346.94,1545h0a58.85,58.85,0,0,1,58.85,58.85V1800A58.85,58.85,0,0,1,346.94,1858.87Z"
           id="path1059" />
        <path
           class="cls-52"
           d="M602,1603.84h0a58.85,58.85,0,0,1-58.85,58.85H346.94a58.85,58.85,0,0,1-58.86-58.85h0A58.85,58.85,0,0,1,346.94,1545H543.11A58.85,58.85,0,0,1,602,1603.84Z"
           id="path1061" />
        <path
           class="cls-53"
           d="M543.11,1662.7h0a58.85,58.85,0,0,1-58.85-58.86V1407.67a58.85,58.85,0,0,1,58.85-58.85h0A58.85,58.85,0,0,1,602,1407.67v196.17A58.85,58.85,0,0,1,543.11,1662.7Z"
           id="path1063" />
        <path
           class="cls-54"
           d="M798.13,1407.67h0a58.85,58.85,0,0,1-58.85,58.85H543.11a58.85,58.85,0,0,1-58.86-58.85h0a58.85,58.85,0,0,1,58.86-58.85H739.28A58.85,58.85,0,0,1,798.13,1407.67Z"
           id="path1065" />
        <path
           class="cls-55"
           d="M660.82,1780.4h0A58.85,58.85,0,0,1,602,1721.54V1525.37a58.85,58.85,0,0,1,58.85-58.85h0a58.85,58.85,0,0,1,58.85,58.85v196.17A58.85,58.85,0,0,1,660.82,1780.4Z"
           id="path1067" />
        <path
           class="cls-56"
           d="M915.84,1525.37h0A58.85,58.85,0,0,1,857,1584.22H660.82A58.85,58.85,0,0,1,602,1525.37h0a58.85,58.85,0,0,1,58.86-58.85H857A58.85,58.85,0,0,1,915.84,1525.37Z"
           id="path1069" />
        <path
           class="cls-57"
           d="M739.29,1466.52h0a58.85,58.85,0,0,1-58.85-58.86V1211.49a58.85,58.85,0,0,1,58.85-58.85h0a58.85,58.85,0,0,1,58.85,58.85v196.17A58.85,58.85,0,0,1,739.29,1466.52Z"
           id="path1071" />
        <path
           class="cls-58"
           d="M994.3,1211.5h0a58.85,58.85,0,0,1-58.86,58.85H739.28a58.85,58.85,0,0,1-58.86-58.85h0a58.85,58.85,0,0,1,58.86-58.85H935.44A58.85,58.85,0,0,1,994.3,1211.5Z"
           id="path1073" />
        <path
           class="cls-59"
           d="M935.46,1270.35h0a58.85,58.85,0,0,1-58.85-58.86V1015.32a58.85,58.85,0,0,1,58.85-58.85h0a58.85,58.85,0,0,1,58.85,58.85v196.17A58.85,58.85,0,0,1,935.46,1270.35Z"
           id="path1075" />
        <path
           class="cls-60"
           d="M1190.48,1015.32h0a58.85,58.85,0,0,1-58.86,58.85H935.46a58.85,58.85,0,0,1-58.86-58.85h0a58.85,58.85,0,0,1,58.86-58.85h196.16A58.85,58.85,0,0,1,1190.48,1015.32Z"
           id="path1077" />
        <path
           class="cls-61"
           d="M857,1584.23h0a58.85,58.85,0,0,1-58.85-58.86V1329.2A58.85,58.85,0,0,1,857,1270.35h0a58.85,58.85,0,0,1,58.85,58.85v196.17A58.85,58.85,0,0,1,857,1584.23Z"
           id="path1079" />
        <path
           class="cls-62"
           d="M1112,1329.21h0a58.85,58.85,0,0,1-58.86,58.85H857a58.85,58.85,0,0,1-58.86-58.85h0A58.85,58.85,0,0,1,857,1270.36h196.16A58.85,58.85,0,0,1,1112,1329.21Z"
           id="path1081" />
        <path
           class="cls-63"
           d="M1053.16,1388.05h0a58.85,58.85,0,0,1-58.85-58.86V1133a58.85,58.85,0,0,1,58.85-58.85h0A58.85,58.85,0,0,1,1112,1133v196.17A58.85,58.85,0,0,1,1053.16,1388.05Z"
           id="path1083" />
        <path
           class="cls-64"
           d="M1308.18,1133h0a58.85,58.85,0,0,1-58.86,58.85H1053.15A58.85,58.85,0,0,1,994.3,1133h0a58.85,58.85,0,0,1,58.85-58.85h196.17A58.85,58.85,0,0,1,1308.18,1133Z"
           id="path1085" />
        <path
           class="cls-65"
           d="M974.69,1701.94h0a58.85,58.85,0,0,1-58.85-58.86V1446.91a58.85,58.85,0,0,1,58.85-58.85h0a58.85,58.85,0,0,1,58.85,58.85v196.17A58.85,58.85,0,0,1,974.69,1701.94Z"
           id="path1087" />
        <path
           class="cls-66"
           d="M1229.72,1446.91h0a58.85,58.85,0,0,1-58.85,58.85H974.7a58.85,58.85,0,0,1-58.86-58.85h0a58.85,58.85,0,0,1,58.86-58.85h196.17A58.85,58.85,0,0,1,1229.72,1446.91Z"
           id="path1089" />
        <path
           class="cls-67"
           d="M1170.86,1505.76h0A58.85,58.85,0,0,1,1112,1446.9V1250.73a58.85,58.85,0,0,1,58.85-58.85h0a58.85,58.85,0,0,1,58.85,58.85V1446.9A58.85,58.85,0,0,1,1170.86,1505.76Z"
           id="path1091" />
        <path
           class="cls-68"
           d="M1425.89,1250.73h0a58.85,58.85,0,0,1-58.86,58.85H1170.87a58.85,58.85,0,0,1-58.86-58.85h0a58.85,58.85,0,0,1,58.86-58.85H1367A58.85,58.85,0,0,1,1425.89,1250.73Z"
           id="path1093" />
        <path
           class="cls-69"
           d="M1092.4,1819.63h0a58.86,58.86,0,0,1-58.85-58.86V1564.6a58.85,58.85,0,0,1,58.85-58.85h0a58.85,58.85,0,0,1,58.85,58.85v196.17A58.86,58.86,0,0,1,1092.4,1819.63Z"
           id="path1095" />
        <path
           class="cls-70"
           d="M1347.41,1564.61h0a58.85,58.85,0,0,1-58.86,58.85H1092.38a58.85,58.85,0,0,1-58.85-58.85h0a58.85,58.85,0,0,1,58.85-58.85h196.17A58.85,58.85,0,0,1,1347.41,1564.61Z"
           id="path1097" />
        <path
           class="cls-71"
           d="M1288.57,1623.46h0a58.85,58.85,0,0,1-58.85-58.86V1368.43a58.85,58.85,0,0,1,58.85-58.85h0a58.85,58.85,0,0,1,58.85,58.85V1564.6A58.85,58.85,0,0,1,1288.57,1623.46Z"
           id="path1099" />
        <path
           class="cls-72"
           d="M1543.59,1368.43h0a58.85,58.85,0,0,1-58.86,58.85H1288.56a58.85,58.85,0,0,1-58.85-58.85h0a58.85,58.85,0,0,1,58.85-58.85h196.17A58.85,58.85,0,0,1,1543.59,1368.43Z"
           id="path1101" />
        <path
           class="cls-73"
           d="M1406.27,1741.16h0a58.86,58.86,0,0,1-58.85-58.86V1486.13a58.85,58.85,0,0,1,58.85-58.85h0a58.85,58.85,0,0,1,58.85,58.85V1682.3A58.86,58.86,0,0,1,1406.27,1741.16Z"
           id="path1103" />
        <path
           class="cls-74"
           d="M1661.29,1486.14h0a58.85,58.85,0,0,1-58.86,58.85H1406.26a58.85,58.85,0,0,1-58.85-58.85h0a58.85,58.85,0,0,1,58.85-58.85h196.17A58.85,58.85,0,0,1,1661.29,1486.14Z"
           id="path1105" />
        <path
           class="cls-75"
           d="M1524,1858.87h0a58.85,58.85,0,0,1-58.85-58.86V1603.84A58.85,58.85,0,0,1,1524,1545h0a58.85,58.85,0,0,1,58.85,58.85V1800A58.85,58.85,0,0,1,1524,1858.87Z"
           id="path1107" />
        <path
           class="cls-76"
           d="M1779,1603.84h0a58.85,58.85,0,0,1-58.86,58.85H1524a58.85,58.85,0,0,1-58.85-58.85h0A58.85,58.85,0,0,1,1524,1545h196.17A58.85,58.85,0,0,1,1779,1603.84Z"
           id="path1109" />
        <path
           class="cls-77"
           d="M543.11,485.66h0a58.85,58.85,0,0,1-58.85-58.85V230.64a58.85,58.85,0,0,1,58.85-58.86h0A58.85,58.85,0,0,1,602,230.64V426.81A58.85,58.85,0,0,1,543.11,485.66Z"
           id="path1111" />
        <path
           class="cls-78"
           d="M660.82,603.37h0A58.85,58.85,0,0,1,602,544.52V348.35a58.85,58.85,0,0,1,58.85-58.86h0a58.85,58.85,0,0,1,58.85,58.86V544.52A58.85,58.85,0,0,1,660.82,603.37Z"
           id="path1113" />
        <path
           class="cls-79"
           d="M778.51,721.07h0a58.85,58.85,0,0,1-58.85-58.85V466.05a58.85,58.85,0,0,1,58.85-58.86h0a58.85,58.85,0,0,1,58.85,58.86V662.22A58.85,58.85,0,0,1,778.51,721.07Z"
           id="path1115" />
        <path
           class="cls-80"
           d="M1033.54,466.05h0a58.85,58.85,0,0,1-58.85,58.85H778.52a58.85,58.85,0,0,1-58.86-58.85h0a58.85,58.85,0,0,1,58.86-58.85H974.69A58.85,58.85,0,0,1,1033.54,466.05Z"
           id="path1117" />
        <path
           class="cls-81"
           d="M974.69,524.9h0a58.85,58.85,0,0,1-58.85-58.85V269.88A58.85,58.85,0,0,1,974.69,211h0a58.85,58.85,0,0,1,58.85,58.86V466.05A58.85,58.85,0,0,1,974.69,524.9Z"
           id="path1119" />
        <path
           class="cls-82"
           d="M896.22,838.77h0a58.85,58.85,0,0,1-58.85-58.86V583.75a58.85,58.85,0,0,1,58.85-58.86h0a58.85,58.85,0,0,1,58.85,58.86V779.91A58.85,58.85,0,0,1,896.22,838.77Z"
           id="path1121" />
        <path
           class="cls-83"
           d="M1151.24,583.75h0a58.85,58.85,0,0,1-58.86,58.85H896.22a58.85,58.85,0,0,1-58.86-58.85h0a58.85,58.85,0,0,1,58.86-58.85h196.16A58.85,58.85,0,0,1,1151.24,583.75Z"
           id="path1123" />
        <path
           class="cls-84"
           d="M1092.4,642.6h0a58.85,58.85,0,0,1-58.85-58.85V387.58a58.85,58.85,0,0,1,58.85-58.86h0a58.85,58.85,0,0,1,58.85,58.86V583.75A58.85,58.85,0,0,1,1092.4,642.6Z"
           id="path1125" />
        <path
           class="cls-85"
           d="M1013.93,956.48h0a58.85,58.85,0,0,1-58.85-58.86V701.46a58.85,58.85,0,0,1,58.85-58.86h0a58.85,58.85,0,0,1,58.85,58.86V897.62A58.85,58.85,0,0,1,1013.93,956.48Z"
           id="path1127" />
        <path
           class="cls-86"
           d="M1269,701.45h0a58.85,58.85,0,0,1-58.86,58.85H1013.93a58.85,58.85,0,0,1-58.86-58.85h0a58.85,58.85,0,0,1,58.86-58.85h196.16A58.85,58.85,0,0,1,1269,701.45Z"
           id="path1129" />
        <path
           class="cls-87"
           d="M1210.1,760.3h0a58.85,58.85,0,0,1-58.85-58.86V505.28a58.85,58.85,0,0,1,58.85-58.86h0A58.85,58.85,0,0,1,1269,505.28V701.44A58.85,58.85,0,0,1,1210.1,760.3Z"
           id="path1131" />
        <path
           class="cls-88"
           d="M1465.12,505.28h0a58.85,58.85,0,0,1-58.86,58.85H1210.09a58.85,58.85,0,0,1-58.85-58.85h0a58.85,58.85,0,0,1,58.85-58.85h196.17A58.85,58.85,0,0,1,1465.12,505.28Z"
           id="path1133" />
        <path
           class="cls-89"
           d="M1406.27,564.13h0a58.85,58.85,0,0,1-58.85-58.85V309.11a58.85,58.85,0,0,1,58.85-58.86h0a58.85,58.85,0,0,1,58.85,58.86V505.28A58.85,58.85,0,0,1,1406.27,564.13Z"
           id="path1135" />
        <path
           class="cls-90"
           d="M1131.62,1074.18h0a58.85,58.85,0,0,1-58.85-58.86V819.16a58.85,58.85,0,0,1,58.85-58.86h0a58.85,58.85,0,0,1,58.85,58.86v196.16A58.85,58.85,0,0,1,1131.62,1074.18Z"
           id="path1137" />
        <path
           class="cls-91"
           d="M1386.65,819.16h0A58.85,58.85,0,0,1,1327.79,878H1131.62a58.85,58.85,0,0,1-58.85-58.85h0a58.85,58.85,0,0,1,58.85-58.85h196.17A58.85,58.85,0,0,1,1386.65,819.16Z"
           id="path1139" />
        <path
           class="cls-92"
           d="M1327.8,878h0A58.85,58.85,0,0,1,1269,819.16V623a58.85,58.85,0,0,1,58.85-58.86h0A58.85,58.85,0,0,1,1386.65,623V819.16A58.85,58.85,0,0,1,1327.8,878Z"
           id="path1141" />
        <path
           class="cls-93"
           d="M1582.82,623h0A58.85,58.85,0,0,1,1524,681.83H1327.79A58.85,58.85,0,0,1,1268.94,623h0a58.85,58.85,0,0,1,58.85-58.85H1524A58.85,58.85,0,0,1,1582.82,623Z"
           id="path1143" />
        <path
           class="cls-94"
           d="M1249.33,1191.88h0a58.85,58.85,0,0,1-58.85-58.86V936.85A58.85,58.85,0,0,1,1249.33,878h0a58.85,58.85,0,0,1,58.85,58.85V1133A58.85,58.85,0,0,1,1249.33,1191.88Z"
           id="path1145" />
        <path
           class="cls-95"
           d="M1504.35,936.86h0a58.85,58.85,0,0,1-58.86,58.85H1249.32a58.85,58.85,0,0,1-58.85-58.85h0A58.85,58.85,0,0,1,1249.32,878h196.17A58.85,58.85,0,0,1,1504.35,936.86Z"
           id="path1147" />
        <path
           class="cls-96"
           d="M1445.51,995.71h0a58.85,58.85,0,0,1-58.85-58.86V740.69a58.85,58.85,0,0,1,58.85-58.86h0a58.85,58.85,0,0,1,58.85,58.86V936.85A58.85,58.85,0,0,1,1445.51,995.71Z"
           id="path1149" />
        <path
           class="cls-97"
           d="M1700.53,740.68h0a58.85,58.85,0,0,1-58.86,58.85H1445.5a58.85,58.85,0,0,1-58.85-58.85h0a58.85,58.85,0,0,1,58.85-58.85h196.17A58.85,58.85,0,0,1,1700.53,740.68Z"
           id="path1151" />
        <path
           class="cls-98"
           d="M1367,1309.59h0a58.85,58.85,0,0,1-58.85-58.86V1054.56A58.85,58.85,0,0,1,1367,995.71h0a58.85,58.85,0,0,1,58.85,58.85v196.17A58.85,58.85,0,0,1,1367,1309.59Z"
           id="path1153" />
        <path
           class="cls-99"
           d="M1622.06,1054.56h0a58.85,58.85,0,0,1-58.86,58.85H1367a58.85,58.85,0,0,1-58.85-58.85h0A58.85,58.85,0,0,1,1367,995.71H1563.2A58.85,58.85,0,0,1,1622.06,1054.56Z"
           id="path1155" />
        <path
           class="cls-100"
           d="M1563.21,1113.41h0a58.85,58.85,0,0,1-58.85-58.86V858.38a58.85,58.85,0,0,1,58.85-58.85h0a58.85,58.85,0,0,1,58.85,58.85v196.17A58.85,58.85,0,0,1,1563.21,1113.41Z"
           id="path1157" />
        <path
           class="cls-101"
           d="M1818.23,858.39h0a58.85,58.85,0,0,1-58.86,58.85H1563.2a58.85,58.85,0,0,1-58.85-58.85h0a58.85,58.85,0,0,1,58.85-58.85h196.17A58.85,58.85,0,0,1,1818.23,858.39Z"
           id="path1159" />
        <path
           class="cls-102"
           d="M1484.73,1427.29h0a58.85,58.85,0,0,1-58.85-58.86V1172.26a58.85,58.85,0,0,1,58.85-58.85h0a58.85,58.85,0,0,1,58.85,58.85v196.17A58.85,58.85,0,0,1,1484.73,1427.29Z"
           id="path1161" />
        <path
           class="cls-103"
           d="M1739.76,1172.27h0a58.85,58.85,0,0,1-58.86,58.85H1484.73a58.85,58.85,0,0,1-58.85-58.85h0a58.85,58.85,0,0,1,58.85-58.85H1680.9A58.85,58.85,0,0,1,1739.76,1172.27Z"
           id="path1163" />
        <path
           class="cls-104"
           d="M1680.91,1231.12h0a58.85,58.85,0,0,1-58.85-58.86V976.09a58.85,58.85,0,0,1,58.85-58.85h0a58.85,58.85,0,0,1,58.85,58.85v196.17A58.85,58.85,0,0,1,1680.91,1231.12Z"
           id="path1165" />
        <path
           class="cls-105"
           d="M1935.93,976.09h0a58.85,58.85,0,0,1-58.86,58.85H1680.9a58.85,58.85,0,0,1-58.85-58.85h0a58.85,58.85,0,0,1,58.85-58.85h196.17A58.85,58.85,0,0,1,1935.93,976.09Z"
           id="path1167" />
        <path
           class="cls-106"
           d="M1524,681.83h0A58.85,58.85,0,0,1,1465.12,623V426.81A58.85,58.85,0,0,1,1524,368h0a58.85,58.85,0,0,1,58.85,58.86V623A58.85,58.85,0,0,1,1524,681.83Z"
           id="path1169" />
        <path
           class="cls-107"
           d="M1779,426.81h0a58.85,58.85,0,0,1-58.86,58.85H1524a58.85,58.85,0,0,1-58.85-58.85h0A58.85,58.85,0,0,1,1524,368h196.17A58.85,58.85,0,0,1,1779,426.81Z"
           id="path1171" />
        <path
           class="cls-108"
           d="M1720.15,485.66h0a58.85,58.85,0,0,1-58.85-58.85V230.64a58.85,58.85,0,0,1,58.85-58.86h0A58.85,58.85,0,0,1,1779,230.64V426.81A58.85,58.85,0,0,1,1720.15,485.66Z"
           id="path1173" />
        <path
           class="cls-109"
           d="M1641.68,799.54h0a58.85,58.85,0,0,1-58.85-58.85V544.52a58.85,58.85,0,0,1,58.85-58.86h0a58.85,58.85,0,0,1,58.85,58.86V740.69A58.85,58.85,0,0,1,1641.68,799.54Z"
           id="path1175" />
        <path
           class="cls-110"
           d="M1896.7,544.51h0a58.85,58.85,0,0,1-58.86,58.85H1641.67a58.85,58.85,0,0,1-58.85-58.85h0a58.85,58.85,0,0,1,58.85-58.85h196.17A58.85,58.85,0,0,1,1896.7,544.51Z"
           id="path1177" />
        <path
           class="cls-111"
           d="M1837.84,603.37h0A58.85,58.85,0,0,1,1779,544.52V348.35a58.85,58.85,0,0,1,58.85-58.86h0a58.85,58.85,0,0,1,58.85,58.86V544.52A58.85,58.85,0,0,1,1837.84,603.37Z"
           id="path1179" />
        <path
           class="cls-112"
           d="M1759.38,917.24h0a58.85,58.85,0,0,1-58.85-58.86V662.22a58.85,58.85,0,0,1,58.85-58.86h0a58.85,58.85,0,0,1,58.85,58.86V858.38A58.85,58.85,0,0,1,1759.38,917.24Z"
           id="path1181" />
        <path
           class="cls-113"
           d="M2014.41,662.22h0a58.85,58.85,0,0,1-58.86,58.85H1759.38a58.85,58.85,0,0,1-58.85-58.85h0a58.85,58.85,0,0,1,58.85-58.85h196.17A58.85,58.85,0,0,1,2014.41,662.22Z"
           id="path1183" />
        <path
           class="cls-114"
           d="M1955.55,721.07h0a58.85,58.85,0,0,1-58.85-58.85V466.05a58.85,58.85,0,0,1,58.85-58.86h0a58.85,58.85,0,0,1,58.85,58.86V662.22A58.85,58.85,0,0,1,1955.55,721.07Z"
           id="path1185" />
        <path
           class="cls-115"
           d="M2210.58,466h0a58.85,58.85,0,0,1-58.86,58.85H1955.55A58.85,58.85,0,0,1,1896.7,466h0a58.85,58.85,0,0,1,58.85-58.85h196.17A58.85,58.85,0,0,1,2210.58,466Z"
           id="path1187" />
        <path
           class="cls-116"
           d="M1877.08,1034.94h0a58.85,58.85,0,0,1-58.85-58.86V779.91a58.85,58.85,0,0,1,58.85-58.85h0a58.85,58.85,0,0,1,58.85,58.85V976.08A58.85,58.85,0,0,1,1877.08,1034.94Z"
           id="path1189" />
        <path
           class="cls-117"
           d="M2132.09,779.92h0a58.85,58.85,0,0,1-58.85,58.85H1877.07a58.85,58.85,0,0,1-58.85-58.85h0a58.85,58.85,0,0,1,58.85-58.85h196.17A58.85,58.85,0,0,1,2132.09,779.92Z"
           id="path1191" />
        <path
           class="cls-118"
           d="M1602.44,1545h0a58.85,58.85,0,0,1-58.85-58.86V1290a58.85,58.85,0,0,1,58.85-58.85h0a58.85,58.85,0,0,1,58.85,58.85v196.17A58.85,58.85,0,0,1,1602.44,1545Z"
           id="path1193" />
        <path
           class="cls-119"
           d="M1857.46,1290h0a58.85,58.85,0,0,1-58.86,58.85H1602.43a58.85,58.85,0,0,1-58.85-58.85h0a58.85,58.85,0,0,1,58.85-58.85H1798.6A58.85,58.85,0,0,1,1857.46,1290Z"
           id="path1195" />
        <path
           class="cls-120"
           d="M1798.62,1348.82h0a58.85,58.85,0,0,1-58.85-58.86V1093.79a58.85,58.85,0,0,1,58.85-58.85h0a58.85,58.85,0,0,1,58.85,58.85V1290A58.85,58.85,0,0,1,1798.62,1348.82Z"
           id="path1197" />
        <path
           class="cls-121"
           d="M2053.64,1093.79h0a58.85,58.85,0,0,1-58.86,58.85H1798.61a58.85,58.85,0,0,1-58.85-58.85h0a58.85,58.85,0,0,1,58.85-58.85h196.17A58.85,58.85,0,0,1,2053.64,1093.79Z"
           id="path1199" />
        <path
           class="cls-122"
           d="M1720.15,1662.7h0a58.85,58.85,0,0,1-58.85-58.86V1407.67a58.85,58.85,0,0,1,58.85-58.85h0a58.85,58.85,0,0,1,58.85,58.85v196.17A58.85,58.85,0,0,1,1720.15,1662.7Z"
           id="path1201" />
        <path
           class="cls-123"
           d="M1975.17,1407.67h0a58.85,58.85,0,0,1-58.86,58.85H1720.14a58.85,58.85,0,0,1-58.85-58.85h0a58.85,58.85,0,0,1,58.85-58.85h196.17A58.85,58.85,0,0,1,1975.17,1407.67Z"
           id="path1203" />
        <path
           class="cls-124"
           d="M1916.32,1466.52h0a58.85,58.85,0,0,1-58.85-58.86V1211.49a58.85,58.85,0,0,1,58.85-58.85h0a58.85,58.85,0,0,1,58.85,58.85v196.17A58.85,58.85,0,0,1,1916.32,1466.52Z"
           id="path1205" />
        <path
           class="cls-125"
           d="M2171.34,1211.5h0a58.85,58.85,0,0,1-58.86,58.85H1916.31a58.85,58.85,0,0,1-58.85-58.85h0a58.85,58.85,0,0,1,58.85-58.85h196.17A58.85,58.85,0,0,1,2171.34,1211.5Z"
           id="path1207" />
        <path
           class="cls-126"
           d="M1837.84,1780.4h0a58.85,58.85,0,0,1-58.85-58.86V1525.37a58.85,58.85,0,0,1,58.85-58.85h0a58.85,58.85,0,0,1,58.85,58.85v196.17A58.85,58.85,0,0,1,1837.84,1780.4Z"
           id="path1209" />
        <path
           class="cls-127"
           d="M2092.87,1525.38h0a58.85,58.85,0,0,1-58.86,58.85H1837.84a58.85,58.85,0,0,1-58.85-58.85h0a58.85,58.85,0,0,1,58.85-58.85H2034A58.85,58.85,0,0,1,2092.87,1525.38Z"
           id="path1211" />
        <path
           class="cls-128"
           d="M2034,1584.23h0a58.85,58.85,0,0,1-58.85-58.86V1329.2a58.85,58.85,0,0,1,58.85-58.85h0a58.85,58.85,0,0,1,58.85,58.85v196.17A58.85,58.85,0,0,1,2034,1584.23Z"
           id="path1213" />
        <path
           class="cls-129"
           d="M2289,1329.2h0a58.85,58.85,0,0,1-58.85,58.85H2034a58.85,58.85,0,0,1-58.85-58.85h0a58.85,58.85,0,0,1,58.85-58.85h196.17A58.85,58.85,0,0,1,2289,1329.2Z"
           id="path1215" />
        <path
           class="cls-130"
           d="M1994.79,1152.65h0a58.85,58.85,0,0,1-58.85-58.86V897.62a58.85,58.85,0,0,1,58.85-58.85h0a58.85,58.85,0,0,1,58.85,58.85v196.17A58.85,58.85,0,0,1,1994.79,1152.65Z"
           id="path1217" />
        <path
           class="cls-131"
           d="M2249.81,897.62h0A58.85,58.85,0,0,1,2191,956.47H1994.78a58.85,58.85,0,0,1-58.85-58.85h0a58.85,58.85,0,0,1,58.85-58.85H2191A58.85,58.85,0,0,1,2249.81,897.62Z"
           id="path1219" />
      </g>
    </g>
  </g>
  <g
     id="edge_one"
     data-name="edge one">
    <path
       class="cls-5"
       d="M293.36,367.2a10.8,10.8,0,0,1-6.27.18A16,16,0,0,1,277,358.11a10.71,10.71,0,0,1-.34-6.26,15.1,15.1,0,0,1,9.07-9.86,10.57,10.57,0,0,1,6.25-.18,16.13,16.13,0,0,1,10.07,9.28,10.91,10.91,0,0,1,.35,6.27,14.85,14.85,0,0,1-9.05,9.84Zm3.54-11.92a9.36,9.36,0,0,0-3.24-5.17,9.17,9.17,0,0,0-5.42-2.77,6,6,0,0,0-6.05,6.56q.38,2.52,3.24,5.16a9.33,9.33,0,0,0,5.43,2.81,6,6,0,0,0,6-6.59Z"
       id="path1227" />
    <path
       class="cls-5"
       d="M307.45,318.62a3.2,3.2,0,0,1,2.27,1L323.42,333a3.29,3.29,0,0,1,1.1,2.26,3,3,0,0,1-.91,2.21,2.89,2.89,0,0,1-2.46,1l-17.29-1.67,8.14,7.93a3.32,3.32,0,0,1,1.12,2.23,2.87,2.87,0,0,1-.91,2.21,3,3,0,0,1-2.18,1,3.28,3.28,0,0,1-2.29-1L294,335.72a3.25,3.25,0,0,1-1.07-2.24,3,3,0,0,1,.91-2.21,2.9,2.9,0,0,1,2.44-1l17.26,1.64L305.44,324a3.29,3.29,0,0,1-1.1-2.24,3,3,0,0,1,.91-2.19A3,3,0,0,1,307.45,318.62Z"
       id="path1229" />
    <path
       class="cls-5"
       d="M328.78,330.84a3.07,3.07,0,0,1-2.14-1.06L313.28,316.1a2.75,2.75,0,0,1,.05-4.3l8.85-8.64a3.63,3.63,0,0,1,2.11-1.16,2.24,2.24,0,0,1,1.86.78c1.2,1.23,1.06,2.56-.42,4l-6.45,6.29,3.35,3.43,5.93-5.79c1.48-1.45,2.82-1.57,4-.36a2.28,2.28,0,0,1,.74,1.88,3.59,3.59,0,0,1-1.22,2.08l-5.93,5.8,3.65,3.73,6.44-6.29q2.22-2.18,4-.34a2.28,2.28,0,0,1,.74,1.88,3.64,3.64,0,0,1-1.21,2.09l-8.85,8.64A3.05,3.05,0,0,1,328.78,330.84Z"
       id="path1231" />
    <path
       class="cls-5"
       d="M354.36,305.73a10.84,10.84,0,0,1-6.27-.39,16,16,0,0,1-9.2-10.14,10.68,10.68,0,0,1,.23-6.26,15,15,0,0,1,9.92-9,10.57,10.57,0,0,1,6.24.39,16,16,0,0,1,9.19,10.14,10.83,10.83,0,0,1-.21,6.28,14.87,14.87,0,0,1-9.9,9ZM359,294.17a9.23,9.23,0,0,0-2.76-5.43,9.1,9.1,0,0,0-5.14-3.25,6,6,0,0,0-6.62,6q.15,2.55,2.77,5.44a9.25,9.25,0,0,0,5.15,3.28,6,6,0,0,0,6.6-6Z"
       id="path1233" />
    <path
       class="cls-5"
       d="M372.79,258.59a3.19,3.19,0,0,1,2.18,1.19l12.44,14.53a3.25,3.25,0,0,1,.88,2.34,2.91,2.91,0,0,1-1.1,2.12,2.85,2.85,0,0,1-2.54.77l-17.07-3.22L375,285a3.35,3.35,0,0,1,.91,2.32,2.88,2.88,0,0,1-1.1,2.12,3,3,0,0,1-2.27.77,3.26,3.26,0,0,1-2.18-1.24L357.9,274.41a3.21,3.21,0,0,1-.87-2.32,3,3,0,0,1,1.11-2.12,2.84,2.84,0,0,1,2.51-.74l17,3.19-7.39-8.64a3.23,3.23,0,0,1-.89-2.32,2.88,2.88,0,0,1,1.1-2.09A3,3,0,0,1,372.79,258.59Z"
       id="path1235" />
    <path
       class="cls-5"
       d="M392.91,272.7a3,3,0,0,1-2-1.25l-12.07-14.83a2.74,2.74,0,0,1,.44-4.27l9.58-7.81a3.61,3.61,0,0,1,2.21-1,2.28,2.28,0,0,1,1.79,1q1.62,2-.79,4l-7,5.68,3,3.72,6.43-5.24c1.61-1.31,2.94-1.31,4,0a2.27,2.27,0,0,1,.57,1.93,3.66,3.66,0,0,1-1.4,2l-6.43,5.24,3.3,4,7-5.68c1.61-1.31,2.95-1.3,4,0a2.28,2.28,0,0,1,.56,1.94,3.62,3.62,0,0,1-1.4,2l-9.59,7.81A3,3,0,0,1,392.91,272.7Z"
       id="path1237" />
    <path
       class="cls-5"
       d="M420.67,250a10.93,10.93,0,0,1-6.21-1,16,16,0,0,1-8.25-10.92,10.77,10.77,0,0,1,.79-6.22,15.1,15.1,0,0,1,10.7-8.08,10.66,10.66,0,0,1,6.18.95,16.11,16.11,0,0,1,8.24,10.94,10.9,10.9,0,0,1-.78,6.23A14.83,14.83,0,0,1,420.67,250Zm5.62-11.1a9.29,9.29,0,0,0-2.26-5.66,9.13,9.13,0,0,0-4.83-3.7,6,6,0,0,0-7.13,5.36c-.06,1.7.7,3.59,2.26,5.66a9.25,9.25,0,0,0,4.84,3.74,6,6,0,0,0,7.12-5.4Z"
       id="path1239" />
    <path
       class="cls-5"
       d="M443.27,204.71a3.2,3.2,0,0,1,2.06,1.39l11.08,15.58a3.3,3.3,0,0,1,.66,2.42,3,3,0,0,1-1.28,2,2.88,2.88,0,0,1-2.61.53l-16.7-4.74,6.58,9.26a3.35,3.35,0,0,1,.7,2.4,2.86,2.86,0,0,1-1.29,2,2.93,2.93,0,0,1-2.32.56,3.3,3.3,0,0,1-2.07-1.43L427,219.13a3.23,3.23,0,0,1-.64-2.39,3,3,0,0,1,1.29-2,2.9,2.9,0,0,1,2.57-.51l16.68,4.72-6.58-9.27a3.25,3.25,0,0,1-.68-2.39,2.93,2.93,0,0,1,1.29-2A3.05,3.05,0,0,1,443.27,204.71Z"
       id="path1241" />
    <path
       class="cls-5"
       d="M462,220.59a3.07,3.07,0,0,1-1.91-1.43L449.43,203.3a2.73,2.73,0,0,1,.82-4.21l10.26-6.91a3.64,3.64,0,0,1,2.28-.77,2.26,2.26,0,0,1,1.69,1.11q1.44,2.13-1.14,3.87l-7.47,5,2.68,4,6.88-4.63q2.58-1.74,4,.37a2.25,2.25,0,0,1,.39,2,3.65,3.65,0,0,1-1.57,1.83l-6.88,4.63,2.92,4.33,7.47-5q2.58-1.74,4,.39a2.25,2.25,0,0,1,.38,2,3.54,3.54,0,0,1-1.56,1.83L464.33,220A3,3,0,0,1,462,220.59Z"
       id="path1243" />
    <path
       class="cls-5"
       d="M891.26,59.85a10.9,10.9,0,0,1-4.83-4,14.39,14.39,0,0,1-2.25-6.64,14.36,14.36,0,0,1,.8-7,10.69,10.69,0,0,1,3.87-4.92,15.06,15.06,0,0,1,13.33-1.43,10.59,10.59,0,0,1,4.81,4,14.54,14.54,0,0,1,2.24,6.64,14.48,14.48,0,0,1-.8,7,10.75,10.75,0,0,1-3.88,4.94,14.82,14.82,0,0,1-13.29,1.42Zm10.53-6.62a9.25,9.25,0,0,0,1-6,9.07,9.07,0,0,0-2.24-5.65,6,6,0,0,0-8.87.93,9.17,9.17,0,0,0-1,6,9.29,9.29,0,0,0,2.22,5.7,6,6,0,0,0,8.89-1Z"
       id="path1245" />
    <path
       class="cls-5"
       d="M933.91,32.66A3.16,3.16,0,0,1,935,34.91L936.45,54a3.28,3.28,0,0,1-.68,2.42,2.91,2.91,0,0,1-2.14,1.06,2.84,2.84,0,0,1-2.5-.88L919.24,43.91l.89,11.33a3.38,3.38,0,0,1-.64,2.42,2.87,2.87,0,0,1-2.14,1.06,3,3,0,0,1-2.28-.72,3.26,3.26,0,0,1-1-2.28l-1.48-19.07a3.2,3.2,0,0,1,.67-2.38,2.94,2.94,0,0,1,2.14-1.06,2.88,2.88,0,0,1,2.47.88l11.88,12.63-.88-11.34a3.25,3.25,0,0,1,.66-2.4,2.91,2.91,0,0,1,2.12-1A3,3,0,0,1,933.91,32.66Z"
       id="path1247" />
    <path
       class="cls-5"
       d="M941.85,55.92a3,3,0,0,1-.9-2.21l-1-19.09a3,3,0,0,1,.67-2.29,3.1,3.1,0,0,1,2.21-.91l12.35-.65a3.63,3.63,0,0,1,2.35.52,2.25,2.25,0,0,1,.88,1.82q.14,2.56-3,2.73l-9,.48.25,4.78,8.28-.44q3.1-.16,3.24,2.37a2.28,2.28,0,0,1-.69,1.9,3.54,3.54,0,0,1-2.28.76l-8.28.44.27,5.21,9-.47q3.1-.16,3.24,2.4a2.27,2.27,0,0,1-.69,1.9,3.61,3.61,0,0,1-2.29.77l-12.35.65A3,3,0,0,1,941.85,55.92Z"
       id="path1249" />
    <path
       class="cls-5"
       d="M977.67,53.94a10.82,10.82,0,0,1-4.46-4.43,14.62,14.62,0,0,1-1.65-6.82A14.55,14.55,0,0,1,973,35.82a10.68,10.68,0,0,1,4.3-4.55,15,15,0,0,1,13.4-.23,10.69,10.69,0,0,1,4.44,4.42,14.7,14.7,0,0,1,1.63,6.81,14.4,14.4,0,0,1-1.43,6.87,10.81,10.81,0,0,1-4.3,4.58,14.83,14.83,0,0,1-13.36.22Zm11.07-5.65a9.24,9.24,0,0,0,1.51-5.91,9.06,9.06,0,0,0-1.72-5.83,6,6,0,0,0-8.92.13q-1.58,2-1.51,5.9a9.3,9.3,0,0,0,1.71,5.87,6,6,0,0,0,8.93-.16Z"
       id="path1251" />
    <path
       class="cls-5"
       d="M1022.67,30.72a3.24,3.24,0,0,1,.84,2.34l-.31,19.12a3.28,3.28,0,0,1-.9,2.34,2.93,2.93,0,0,1-2.23.86,2.89,2.89,0,0,1-2.41-1.11L1007,40.55l-.18,11.36a3.32,3.32,0,0,1-.86,2.35,2.87,2.87,0,0,1-2.23.85,2.92,2.92,0,0,1-2.2-.92,3.28,3.28,0,0,1-.82-2.38l.31-19.12a3.21,3.21,0,0,1,.89-2.31,3,3,0,0,1,2.24-.85,2.85,2.85,0,0,1,2.37,1.11l10.65,13.68.18-11.36a3.27,3.27,0,0,1,.88-2.33,3,3,0,0,1,2.21-.84A3,3,0,0,1,1022.67,30.72Z"
       id="path1253" />
    <path
       class="cls-5"
       d="M1028.42,54.55a3,3,0,0,1-.71-2.28l.71-19.11a2.73,2.73,0,0,1,3.14-2.92l12.36.45a3.62,3.62,0,0,1,2.3.73,2.27,2.27,0,0,1,.72,1.89c-.07,1.71-1.13,2.53-3.21,2.45l-9-.33-.17,4.79,8.28.3c2.08.08,3.08,1,3,2.65A2.27,2.27,0,0,1,1045,45a3.57,3.57,0,0,1-2.34.56l-8.29-.3-.19,5.21,9,.33c2.07.08,3.08,1,3,2.69a2.26,2.26,0,0,1-.86,1.82,3.57,3.57,0,0,1-2.34.56l-12.36-.45A3.06,3.06,0,0,1,1028.42,54.55Z"
       id="path1255" />
    <path
       class="cls-5"
       d="M1064.26,55.77a10.84,10.84,0,0,1-4-4.81,14.48,14.48,0,0,1-1-6.94,14.49,14.49,0,0,1,2-6.71,10.73,10.73,0,0,1,4.69-4.16,15.06,15.06,0,0,1,13.37,1,10.63,10.63,0,0,1,4,4.79,14.6,14.6,0,0,1,1,6.94,14.37,14.37,0,0,1-2,6.71,10.77,10.77,0,0,1-4.69,4.18,14.82,14.82,0,0,1-13.33-1Zm11.54-4.64a9.32,9.32,0,0,0,2-5.75,9.06,9.06,0,0,0-1.2-6,6,6,0,0,0-8.89-.67c-1.17,1.24-1.84,3.16-2,5.75a9.27,9.27,0,0,0,1.17,6,6,6,0,0,0,8.92.63Z"
       id="path1257" />
    <path
       class="cls-5"
       d="M1111.1,36.62a3.16,3.16,0,0,1,.63,2.4l-1.94,19a3.28,3.28,0,0,1-1.09,2.26,3,3,0,0,1-2.3.66,2.91,2.91,0,0,1-2.31-1.31l-9.43-14.58-1.15,11.3a3.38,3.38,0,0,1-1.06,2.27,2.88,2.88,0,0,1-2.3.66A2.92,2.92,0,0,1,1088,58.2a3.26,3.26,0,0,1-.61-2.44l1.94-19a3.16,3.16,0,0,1,1.09-2.22,3.18,3.18,0,0,1,4.56.64l9.44,14.55,1.16-11.31a3.21,3.21,0,0,1,1.07-2.24,2.88,2.88,0,0,1,2.27-.65A3,3,0,0,1,1111.1,36.62Z"
       id="path1259" />
    <path
       class="cls-5"
       d="M1114.75,60.93a3.1,3.1,0,0,1-.5-2.34l2.42-19a3.09,3.09,0,0,1,1.07-2.14,3,3,0,0,1,2.33-.49l12.27,1.56a3.6,3.6,0,0,1,2.22.93,2.27,2.27,0,0,1,.55,1.95q-.33,2.55-3.41,2.16l-8.94-1.14-.6,4.75,8.22,1q3.09.39,2.77,2.91a2.3,2.3,0,0,1-1,1.74,3.6,3.6,0,0,1-2.39.34l-8.22-1-.66,5.17,8.93,1.14c2.06.26,3,1.25,2.76,2.95a2.26,2.26,0,0,1-1,1.74,3.61,3.61,0,0,1-2.39.35L1116.88,62A3.06,3.06,0,0,1,1114.75,60.93Z"
       id="path1261" />
    <path
       class="cls-5"
       d="M1690.11,348.46a10.82,10.82,0,0,1,.27-6.27,16,16,0,0,1,10-9.4,10.8,10.8,0,0,1,6.27.11,15.07,15.07,0,0,1,9.19,9.75,10.59,10.59,0,0,1-.27,6.25,16.13,16.13,0,0,1-10,9.38,10.83,10.83,0,0,1-6.28-.09,14.84,14.84,0,0,1-9.17-9.73Zm11.64,4.38a9.3,9.3,0,0,0,5.38-2.87,9.14,9.14,0,0,0,3.15-5.2,6,6,0,0,0-6.11-6.5c-1.69.12-3.49,1.08-5.38,2.86a9.2,9.2,0,0,0-3.18,5.22,6,6,0,0,0,6.14,6.49Z"
       id="path1263" />
    <path
       class="cls-5"
       d="M1737.57,366a3.23,3.23,0,0,1-1.16,2.2l-14.28,12.71a3.27,3.27,0,0,1-2.33.93,2.94,2.94,0,0,1-2.14-1.06,2.87,2.87,0,0,1-.82-2.53l2.9-17.13-8.49,7.56a3.37,3.37,0,0,1-2.31,1,3.22,3.22,0,0,1-3-3.31,3.27,3.27,0,0,1,1.19-2.21l14.29-12.72a3.22,3.22,0,0,1,2.3-.9,3.2,3.2,0,0,1,2.93,3.56l-2.86,17.1,8.49-7.56a3.21,3.21,0,0,1,2.3-.93,2.93,2.93,0,0,1,2.12,1.06A3,3,0,0,1,1737.57,366Z"
       id="path1265" />
    <path
       class="cls-5"
       d="M1723.85,386.37a3,3,0,0,1,1.21-2.05l14.6-12.35a3,3,0,0,1,2.22-.86,3.11,3.11,0,0,1,2.06,1.21l8,9.45a3.54,3.54,0,0,1,1,2.18,2.22,2.22,0,0,1-.91,1.8c-1.31,1.11-2.63.88-4-.71l-5.82-6.87-3.65,3.09,5.35,6.33q2,2.37.07,4a2.21,2.21,0,0,1-1.92.6,3.55,3.55,0,0,1-2-1.35l-5.36-6.33-4,3.37,5.81,6.87q2,2.37,0,4a2.29,2.29,0,0,1-1.93.6,3.58,3.58,0,0,1-2-1.36l-8-9.44A3.06,3.06,0,0,1,1723.85,386.37Z"
       id="path1267" />
    <path
       class="cls-5"
       d="M1747.08,413.69a10.87,10.87,0,0,1,.83-6.23,16.06,16.06,0,0,1,10.77-8.45,10.7,10.7,0,0,1,6.23.67,15.05,15.05,0,0,1,8.28,10.54,10.61,10.61,0,0,1-.84,6.2,14.56,14.56,0,0,1-4.44,5.42,14.4,14.4,0,0,1-6.33,3,10.94,10.94,0,0,1-6.25-.66,13.58,13.58,0,0,1-5.37-4.26A13.41,13.41,0,0,1,1747.08,413.69Zm11.19,5.4a9.24,9.24,0,0,0,5.62-2.36,9.12,9.12,0,0,0,3.61-4.9,6,6,0,0,0-5.5-7,11.61,11.61,0,0,0-9.26,7.28,6,6,0,0,0,5.53,7Z"
       id="path1269" />
    <path
       class="cls-5"
       d="M1792.76,435.41a3.19,3.19,0,0,1-1.35,2.09L1776,448.87a3.26,3.26,0,0,1-2.41.71,3.26,3.26,0,0,1-2.62-3.84l4.43-16.79-9.14,6.76a3.32,3.32,0,0,1-2.38.74,2.86,2.86,0,0,1-2-1.25,2.92,2.92,0,0,1-.6-2.31,3.24,3.24,0,0,1,1.39-2.09L1778,419.42a3.28,3.28,0,0,1,2.38-.69,3.22,3.22,0,0,1,2.6,3.81l-4.4,16.77,9.13-6.76a3.22,3.22,0,0,1,2.39-.71,2.89,2.89,0,0,1,2,1.24A3,3,0,0,1,1792.76,435.41Z"
       id="path1271" />
    <path
       class="cls-5"
       d="M1777.24,454.47a3.07,3.07,0,0,1,1.4-1.94l15.65-11a2.74,2.74,0,0,1,4.23.74l7.1,10.13a3.57,3.57,0,0,1,.81,2.27,2.29,2.29,0,0,1-1.07,1.71c-1.4,1-2.7.63-3.89-1.07l-5.18-7.37-3.91,2.75,4.76,6.79c1.19,1.69,1.09,3-.29,4a2.27,2.27,0,0,1-2,.42,3.59,3.59,0,0,1-1.86-1.53l-4.76-6.79-4.27,3,5.17,7.37c1.19,1.7,1.09,3-.32,4a2.28,2.28,0,0,1-2,.42,3.55,3.55,0,0,1-1.86-1.53l-7.11-10.12A3.1,3.1,0,0,1,1777.24,454.47Z"
       id="path1273" />
    <path
       class="cls-5"
       d="M1797.92,483.79a10.9,10.9,0,0,1,1.4-6.13,16,16,0,0,1,11.48-7.44,10.71,10.71,0,0,1,6.15,1.23,15.11,15.11,0,0,1,7.29,11.25,10.58,10.58,0,0,1-1.39,6.09,16.13,16.13,0,0,1-11.5,7.44,10.86,10.86,0,0,1-6.16-1.23,14.8,14.8,0,0,1-7.27-11.21Zm10.67,6.39a9.22,9.22,0,0,0,5.8-1.85,9.11,9.11,0,0,0,4-4.55,6,6,0,0,0-4.84-7.49q-2.53-.27-5.81,1.85a9.24,9.24,0,0,0-4.07,4.56,6,6,0,0,0,4.88,7.48Z"
       id="path1275" />
    <path
       class="cls-5"
       d="M1841.45,509.55a3.19,3.19,0,0,1-1.53,2l-16.34,9.93a3.29,3.29,0,0,1-2.46.5,3,3,0,0,1-1.91-1.43,2.87,2.87,0,0,1-.35-2.64l5.93-16.32-9.71,5.91a3.39,3.39,0,0,1-2.45.52,2.88,2.88,0,0,1-1.91-1.43,3,3,0,0,1-.39-2.36,3.31,3.31,0,0,1,1.57-2l16.34-9.93a3.18,3.18,0,0,1,2.43-.47,3.18,3.18,0,0,1,2.24,4l-5.89,16.3,9.71-5.9a3.19,3.19,0,0,1,2.43-.5,2.9,2.9,0,0,1,1.89,1.42A3,3,0,0,1,1841.45,509.55Z"
       id="path1277" />
    <path
       class="cls-5"
       d="M1824.29,527.15a3,3,0,0,1,1.56-1.8l16.58-9.52a3,3,0,0,1,2.34-.44,3,3,0,0,1,1.81,1.56l6.15,10.72a3.62,3.62,0,0,1,.6,2.34,2.28,2.28,0,0,1-1.22,1.61q-2.23,1.27-3.78-1.42l-4.48-7.81-4.16,2.38,4.13,7.19c1,1.8.82,3.12-.65,4a2.24,2.24,0,0,1-2,.25,3.58,3.58,0,0,1-1.72-1.7l-4.13-7.19-4.52,2.6,4.48,7.81c1,1.8.81,3.12-.68,4a2.29,2.29,0,0,1-2,.24,3.58,3.58,0,0,1-1.71-1.69l-6.16-10.73A3,3,0,0,1,1824.29,527.15Z"
       id="path1279" />
    <path
       class="cls-5"
       d="M1946.83,885.78a10.79,10.79,0,0,1,4-4.89,16,16,0,0,1,13.59-1.64,10.75,10.75,0,0,1,5,3.81,15,15,0,0,1,1.61,13.31,10.68,10.68,0,0,1-3.93,4.86,16.08,16.08,0,0,1-13.6,1.62,10.82,10.82,0,0,1-5-3.8,14.81,14.81,0,0,1-1.6-13.27Zm6.76,10.43a9.29,9.29,0,0,0,6,.89,9.18,9.18,0,0,0,5.63-2.31,6,6,0,0,0-1-8.86,11.6,11.6,0,0,0-11.69,1.41,6,6,0,0,0,1.08,8.87Z"
       id="path1281" />
    <path
       class="cls-5"
       d="M1974.6,928.08a3.22,3.22,0,0,1-2.24,1.08l-19,1.74a3.3,3.3,0,0,1-2.43-.64,3,3,0,0,1-1.09-2.13,2.86,2.86,0,0,1,.85-2.51l12.5-12.06-11.32,1a3.34,3.34,0,0,1-2.42-.61,2.82,2.82,0,0,1-1.09-2.12,2.91,2.91,0,0,1,.68-2.29,3.28,3.28,0,0,1,2.27-1.07l19-1.74a3.22,3.22,0,0,1,2.39.64,3,3,0,0,1,1.09,2.13A2.89,2.89,0,0,1,1973,912l-12.47,12.05,11.32-1a3.25,3.25,0,0,1,2.41.62,2.9,2.9,0,0,1,1.07,2.11A3,3,0,0,1,1974.6,928.08Z"
       id="path1283" />
    <path
       class="cls-5"
       d="M1951.44,936.32a3.07,3.07,0,0,1,2.2-.94l19.07-1.26A2.76,2.76,0,0,1,1976,937l.81,12.34a3.55,3.55,0,0,1-.49,2.36,2.27,2.27,0,0,1-1.8.91q-2.57.16-2.77-2.93l-.6-9-4.77.31.54,8.28c.14,2.07-.64,3.16-2.32,3.27a2.29,2.29,0,0,1-1.91-.66,3.66,3.66,0,0,1-.8-2.28l-.54-8.27-5.21.34.59,9q.21,3.11-2.36,3.27a2.27,2.27,0,0,1-1.9-.66,3.58,3.58,0,0,1-.8-2.28l-.82-12.34A3,3,0,0,1,1951.44,936.32Z"
       id="path1285" />
    <path
       class="cls-5"
       d="M1953.9,972.1a10.87,10.87,0,0,1,4.37-4.52,16,16,0,0,1,13.68-.4,10.76,10.76,0,0,1,4.62,4.24,15.07,15.07,0,0,1,.4,13.39,10.57,10.57,0,0,1-4.36,4.5,16.11,16.11,0,0,1-13.68.39,10.91,10.91,0,0,1-4.63-4.24,14.83,14.83,0,0,1-.4-13.36Zm5.8,11a9.31,9.31,0,0,0,5.92,1.43,9.14,9.14,0,0,0,5.81-1.8,6,6,0,0,0-.24-8.92,9.2,9.2,0,0,0-5.93-1.43c-2.59.08-4.54.67-5.84,1.79a6,6,0,0,0,.28,8.93Z"
       id="path1287" />
    <path
       class="cls-5"
       d="M1977.91,1016.34a3.22,3.22,0,0,1-2.31.91l-19.12.31a3.28,3.28,0,0,1-2.37-.82,2.9,2.9,0,0,1-.93-2.2,2.86,2.86,0,0,1,1-2.45l13.37-11.08-11.37.18a3.33,3.33,0,0,1-2.37-.78,2.9,2.9,0,0,1-.93-2.2,2.93,2.93,0,0,1,.86-2.23,3.3,3.3,0,0,1,2.35-.9l19.11-.31a3.24,3.24,0,0,1,2.34.82,3.2,3.2,0,0,1-.1,4.61l-13.34,11.09,11.37-.19a3.25,3.25,0,0,1,2.35.8,2.89,2.89,0,0,1,.91,2.19A3,3,0,0,1,1977.91,1016.34Z"
       id="path1289" />
    <path
       class="cls-5"
       d="M1954,1022.84a3.07,3.07,0,0,1,2.27-.73l19.12.45a2.74,2.74,0,0,1,3,3.11L1978,1038a3.56,3.56,0,0,1-.69,2.3,2.25,2.25,0,0,1-1.88.75c-1.71,0-2.55-1.1-2.5-3.17l.21-9-4.79-.12-.19,8.29c0,2.08-.92,3.09-2.61,3.05a2.25,2.25,0,0,1-1.84-.83,3.58,3.58,0,0,1-.59-2.33l.19-8.29-5.21-.13-.21,9c-.05,2.07-.93,3.09-2.65,3a2.28,2.28,0,0,1-1.84-.83,3.69,3.69,0,0,1-.59-2.34l.29-12.36A3.09,3.09,0,0,1,1954,1022.84Z"
       id="path1291" />
    <path
       class="cls-5"
       d="M1953.22,1058.73a10.85,10.85,0,0,1,4.75-4.11,16.06,16.06,0,0,1,13.67.82,10.73,10.73,0,0,1,4.21,4.64,13.46,13.46,0,0,1,1.17,6.78,13.63,13.63,0,0,1-2,6.59,10.66,10.66,0,0,1-4.74,4.09,16.09,16.09,0,0,1-13.66-.83,10.91,10.91,0,0,1-4.24-4.64,14.82,14.82,0,0,1,.8-13.34Zm4.79,11.47a9.3,9.3,0,0,0,5.77,2,9.16,9.16,0,0,0,6-1.28,6,6,0,0,0,.55-8.9q-1.89-1.73-5.77-2a9.25,9.25,0,0,0-6,1.25,6,6,0,0,0-.51,8.92Z"
       id="path1293" />
    <path
       class="cls-5"
       d="M1973,1105.28a3.18,3.18,0,0,1-2.39.67l-19-1.69a3.24,3.24,0,0,1-2.27-1.06,2.93,2.93,0,0,1-.69-2.28,2.86,2.86,0,0,1,1.28-2.33l14.45-9.63-11.32-1a3.34,3.34,0,0,1-2.28-1,2.81,2.81,0,0,1-.69-2.28,2.88,2.88,0,0,1,1.08-2.13,3.23,3.23,0,0,1,2.43-.65l19,1.68a3.25,3.25,0,0,1,2.24,1.06,3,3,0,0,1,.7,2.29,2.91,2.91,0,0,1-1.28,2.29l-14.42,9.63,11.32,1a3.2,3.2,0,0,1,2.26,1,2.9,2.9,0,0,1,.68,2.26A3,3,0,0,1,1973,1105.28Z"
       id="path1295" />
    <path
       class="cls-5"
       d="M1948.74,1109.25a3.07,3.07,0,0,1,2.33-.53l19,2.17a2.74,2.74,0,0,1,2.67,3.36l-1.4,12.28a3.54,3.54,0,0,1-.9,2.24,2.27,2.27,0,0,1-1.94.57q-2.55-.28-2.2-3.38l1-9-4.76-.54-.94,8.24q-.34,3.09-2.87,2.8a2.26,2.26,0,0,1-1.76-1,3.62,3.62,0,0,1-.37-2.38l.93-8.24-5.18-.59-1,9q-.35,3.09-2.91,2.8a2.3,2.3,0,0,1-1.76-1,3.65,3.65,0,0,1-.37-2.39l1.4-12.28A3,3,0,0,1,1948.74,1109.25Z"
       id="path1297" />
    <path
       class="cls-5"
       d="M1654.31,1702.58a10.86,10.86,0,0,1,6.28.33,16,16,0,0,1,9.31,10,10.68,10.68,0,0,1-.16,6.26,15,15,0,0,1-9.82,9.12,10.6,10.6,0,0,1-6.25-.32,14.64,14.64,0,0,1-5.77-4,14.49,14.49,0,0,1-3.53-6.06,10.83,10.83,0,0,1,.15-6.28,13.38,13.38,0,0,1,3.8-5.7A13.67,13.67,0,0,1,1654.31,1702.58Zm-4.46,11.61a9.24,9.24,0,0,0,2.82,5.4,9.1,9.1,0,0,0,5.18,3.19,6,6,0,0,0,6.55-6,11.59,11.59,0,0,0-8-8.63,6,6,0,0,0-6.54,6.09Z"
       id="path1299" />
    <path
       class="cls-5"
       d="M1636.43,1749.91a3.21,3.21,0,0,1-2.19-1.18l-12.6-14.38a3.21,3.21,0,0,1-.91-2.34,3,3,0,0,1,1.08-2.13,2.84,2.84,0,0,1,2.53-.79l17.1,3-7.49-8.54a3.38,3.38,0,0,1-.94-2.32,2.85,2.85,0,0,1,1.08-2.13,2.93,2.93,0,0,1,2.26-.79,3.26,3.26,0,0,1,2.2,1.21l12.6,14.38a3.2,3.2,0,0,1,.88,2.31,3.2,3.2,0,0,1-3.58,2.91l-17.08-3,7.49,8.55a3.22,3.22,0,0,1,.91,2.32,2.85,2.85,0,0,1-1.07,2.1A3,3,0,0,1,1636.43,1749.91Z"
       id="path1301" />
    <path
       class="cls-5"
       d="M1616.14,1736a3,3,0,0,1,2,1.23l12.24,14.69a2.74,2.74,0,0,1-.39,4.28l-9.5,7.91a3.55,3.55,0,0,1-2.2,1,2.23,2.23,0,0,1-1.79-.92q-1.65-2,.74-4l6.92-5.76-3.07-3.68-6.37,5.3q-2.38,2-4,0a2.24,2.24,0,0,1-.58-1.93,3.56,3.56,0,0,1,1.37-2l6.37-5.3-3.34-4-6.92,5.76q-2.39,2-4,0a2.25,2.25,0,0,1-.58-1.93,3.6,3.6,0,0,1,1.37-2l9.51-7.91A3,3,0,0,1,1616.14,1736Z"
       id="path1303" />
    <path
       class="cls-5"
       d="M1588.64,1759a11,11,0,0,1,6.22.89,16,16,0,0,1,8.37,10.83,10.8,10.8,0,0,1-.73,6.23,15.05,15.05,0,0,1-10.6,8.19,10.59,10.59,0,0,1-6.19-.88,16.05,16.05,0,0,1-8.36-10.84,10.83,10.83,0,0,1,.71-6.24,14.82,14.82,0,0,1,10.58-8.18Zm-5.5,11.16a9.3,9.3,0,0,0,2.33,5.64,9.09,9.09,0,0,0,4.87,3.64,6,6,0,0,0,7.06-5.44,9.14,9.14,0,0,0-2.32-5.63c-1.59-2.06-3.21-3.29-4.88-3.69a6,6,0,0,0-7.06,5.48Z"
       id="path1305" />
    <path
       class="cls-5"
       d="M1566.55,1804.56a3.18,3.18,0,0,1-2.07-1.36l-11.25-15.46a3.27,3.27,0,0,1-.7-2.42,2.94,2.94,0,0,1,1.27-2,2.88,2.88,0,0,1,2.59-.57l16.76,4.56-6.69-9.19a3.37,3.37,0,0,1-.72-2.39,2.84,2.84,0,0,1,1.26-2,3,3,0,0,1,2.32-.59,3.29,3.29,0,0,1,2.08,1.41l11.25,15.46a3.22,3.22,0,0,1,.68,2.38,3,3,0,0,1-1.27,2,2.89,2.89,0,0,1-2.56.54l-16.74-4.53,6.69,9.19a3.26,3.26,0,0,1,.7,2.39,2.91,2.91,0,0,1-1.27,2A3,3,0,0,1,1566.55,1804.56Z"
       id="path1307" />
    <path
       class="cls-5"
       d="M1547.61,1788.9a3,3,0,0,1,1.93,1.41l10.85,15.74a3,3,0,0,1,.64,2.3,3.09,3.09,0,0,1-1.41,1.92l-10.18,7a3.52,3.52,0,0,1-2.28.79,2.24,2.24,0,0,1-1.7-1.08c-1-1.41-.61-2.71,1.1-3.88L1554,1808l-2.72-3.94-6.82,4.71q-2.57,1.77-4-.32a2.27,2.27,0,0,1-.41-2,3.58,3.58,0,0,1,1.55-1.85l6.82-4.71-3-4.29-7.42,5.11q-2.55,1.77-4-.35a2.3,2.3,0,0,1-.41-2,3.67,3.67,0,0,1,1.55-1.85l10.18-7A3.08,3.08,0,0,1,1547.61,1788.9Z"
       id="path1309" />
    <path
       class="cls-5"
       d="M1518.12,1809.35a10.84,10.84,0,0,1,6.11,1.45,16,16,0,0,1,7.36,11.54,10.79,10.79,0,0,1-1.28,6.14,13.66,13.66,0,0,1-4.81,4.92,13.5,13.5,0,0,1-6.5,2.28,10.67,10.67,0,0,1-6.08-1.44,16.1,16.1,0,0,1-7.34-11.55,10.82,10.82,0,0,1,1.27-6.15,13.38,13.38,0,0,1,4.76-4.93A13.6,13.6,0,0,1,1518.12,1809.35Zm-6.48,10.62a9.28,9.28,0,0,0,1.8,5.82,9.19,9.19,0,0,0,4.52,4.07,6,6,0,0,0,7.54-4.78q.29-2.53-1.81-5.82a9.24,9.24,0,0,0-4.52-4.11,6,6,0,0,0-7.53,4.82Z"
       id="path1311" />
    <path
       class="cls-5"
       d="M1492,1852.67a3.19,3.19,0,0,1-1.94-1.55l-9.8-16.41a3.26,3.26,0,0,1-.48-2.47,2.94,2.94,0,0,1,1.45-1.9,2.87,2.87,0,0,1,2.63-.33l16.28,6.06-5.83-9.76a3.31,3.31,0,0,1-.5-2.44,2.84,2.84,0,0,1,1.44-1.91,2.94,2.94,0,0,1,2.36-.37,3.3,3.3,0,0,1,1.95,1.59l9.8,16.41a3.25,3.25,0,0,1,.46,2.44,2.94,2.94,0,0,1-1.45,1.9,2.87,2.87,0,0,1-2.6.31l-16.26-6,5.83,9.76a3.25,3.25,0,0,1,.48,2.44,2.89,2.89,0,0,1-1.44,1.88A3,3,0,0,1,1492,1852.67Z"
       id="path1313" />
    <path
       class="cls-5"
       d="M1474.58,1835.36a3.05,3.05,0,0,1,1.79,1.57l9.38,16.66a2.73,2.73,0,0,1-1.15,4.14l-10.77,6.07a3.56,3.56,0,0,1-2.34.58,2.23,2.23,0,0,1-1.6-1.23q-1.26-2.24,1.44-3.77l7.85-4.42-2.35-4.17-7.22,4.07q-2.71,1.53-4-.69a2.26,2.26,0,0,1-.23-2,3.63,3.63,0,0,1,1.71-1.7l7.23-4.07-2.57-4.55-7.84,4.42c-1.81,1-3.13.78-4-.71a2.28,2.28,0,0,1-.22-2,3.54,3.54,0,0,1,1.71-1.7l10.77-6.07A3,3,0,0,1,1474.58,1835.36Z"
       id="path1315" />
    <path
       class="cls-5"
       d="M1104.83,1956.22a10.9,10.9,0,0,1,4.81,4,14.61,14.61,0,0,1,2.22,6.66,14.29,14.29,0,0,1-.84,7,10.72,10.72,0,0,1-3.9,4.91,15.09,15.09,0,0,1-13.33,1.36,10.72,10.72,0,0,1-4.79-4,16.07,16.07,0,0,1-1.37-13.63,10.85,10.85,0,0,1,3.9-4.92,14.8,14.8,0,0,1,13.3-1.35Zm-10.56,6.57a9.27,9.27,0,0,0-1,6,9.15,9.15,0,0,0,2.21,5.67,6,6,0,0,0,8.88-.89,9.15,9.15,0,0,0,1-6c-.26-2.58-1-4.49-2.19-5.7a6,6,0,0,0-8.89.92Z"
       id="path1317" />
    <path
       class="cls-5"
       d="M1062,1983.2a3.23,3.23,0,0,1-1-2.26l-1.39-19.07a3.28,3.28,0,0,1,.68-2.41,3,3,0,0,1,2.15-1.06,2.88,2.88,0,0,1,2.5.9l11.82,12.72-.82-11.34a3.32,3.32,0,0,1,.65-2.41,2.86,2.86,0,0,1,2.14-1,3,3,0,0,1,2.28.73,3.27,3.27,0,0,1,1,2.29l1.39,19.07a3.21,3.21,0,0,1-.69,2.38,3.21,3.21,0,0,1-4.61.16l-11.82-12.69.83,11.34a3.22,3.22,0,0,1-.67,2.39,2.87,2.87,0,0,1-2.13,1A3,3,0,0,1,1062,1983.2Z"
       id="path1319" />
    <path
       class="cls-5"
       d="M1054.21,1959.9a3,3,0,0,1,.89,2.21l.91,19.1a2.74,2.74,0,0,1-2.88,3.18l-12.36.58a3.55,3.55,0,0,1-2.35-.53,2.27,2.27,0,0,1-.87-1.82c-.08-1.71.91-2.62,3-2.71l9-.43-.23-4.79-8.28.4c-2.07.1-3.15-.7-3.23-2.39a2.23,2.23,0,0,1,.7-1.89,3.55,3.55,0,0,1,2.29-.76l8.28-.39-.25-5.21-9,.43c-2.07.09-3.14-.71-3.22-2.43a2.25,2.25,0,0,1,.69-1.89,3.65,3.65,0,0,1,2.29-.75l12.35-.59A3,3,0,0,1,1054.21,1959.9Z"
       id="path1321" />
    <path
       class="cls-5"
       d="M1018.35,1961.66a10.84,10.84,0,0,1,4.46,4.44,16.06,16.06,0,0,1,.22,13.68,10.72,10.72,0,0,1-4.31,4.56,13.56,13.56,0,0,1-6.67,1.68,13.72,13.72,0,0,1-6.73-1.46,10.61,10.61,0,0,1-4.43-4.42,16.13,16.13,0,0,1-.21-13.69,10.92,10.92,0,0,1,4.31-4.57,14.83,14.83,0,0,1,13.36-.22Zm-11.07,5.65a9.3,9.3,0,0,0-1.52,5.91,9.14,9.14,0,0,0,1.72,5.83,6,6,0,0,0,8.92-.13,9.11,9.11,0,0,0,1.51-5.9,9.26,9.26,0,0,0-1.7-5.87,6,6,0,0,0-8.93.16Z"
       id="path1323" />
    <path
       class="cls-5"
       d="M973.36,1984.74a3.24,3.24,0,0,1-.84-2.34l.33-19.12a3.21,3.21,0,0,1,.89-2.34,3.25,3.25,0,0,1,4.65.25L989,1974.92l.19-11.37a3.41,3.41,0,0,1,.86-2.34,2.9,2.9,0,0,1,2.24-.86,3,3,0,0,1,2.2.93,3.27,3.27,0,0,1,.81,2.38l-.32,19.12a3.17,3.17,0,0,1-.89,2.3,3.2,3.2,0,0,1-4.61-.25l-10.64-13.69-.19,11.36a3.23,3.23,0,0,1-.88,2.33,2.93,2.93,0,0,1-2.21.84A3,3,0,0,1,973.36,1984.74Z"
       id="path1325" />
    <path
       class="cls-5"
       d="M967.65,1960.83a3,3,0,0,1,.7,2.28l-.8,19.11a2.74,2.74,0,0,1-3.16,2.91l-12.36-.52a3.57,3.57,0,0,1-2.29-.74A2.26,2.26,0,0,1,949,1982c.07-1.71,1.14-2.52,3.21-2.44l9,.38.2-4.79-8.28-.34q-3.1-.13-3-2.67a2.24,2.24,0,0,1,.86-1.82,3.59,3.59,0,0,1,2.35-.55l8.28.35.22-5.22-9-.37q-3.11-.13-3-2.7a2.27,2.27,0,0,1,.86-1.83,3.62,3.62,0,0,1,2.35-.54l12.36.51A3.06,3.06,0,0,1,967.65,1960.83Z"
       id="path1327" />
    <path
       class="cls-5"
       d="M931.81,1959.43a10.83,10.83,0,0,1,4,4.83,16,16,0,0,1-1.06,13.65A10.85,10.85,0,0,1,930,1982a13.69,13.69,0,0,1-6.8,1,13.55,13.55,0,0,1-6.56-2.09,10.58,10.58,0,0,1-4-4.81,14.63,14.63,0,0,1-1-6.94,14.43,14.43,0,0,1,2.07-6.7,10.81,10.81,0,0,1,4.71-4.15,14.82,14.82,0,0,1,13.33,1ZM920.25,1964a9.23,9.23,0,0,0-2.06,5.74,9.12,9.12,0,0,0,1.16,6,6,6,0,0,0,8.89.71,11.6,11.6,0,0,0,.92-11.74,6,6,0,0,0-8.91-.68Z"
       id="path1329" />
    <path
       class="cls-5"
       d="M884.88,1978.34a3.17,3.17,0,0,1-.63-2.4l2-19a3.24,3.24,0,0,1,1.1-2.25,2.94,2.94,0,0,1,2.3-.65,2.87,2.87,0,0,1,2.31,1.32l9.36,14.63,1.21-11.3a3.32,3.32,0,0,1,1.07-2.26,2.85,2.85,0,0,1,2.29-.65,2.91,2.91,0,0,1,2.11,1.12,3.23,3.23,0,0,1,.6,2.44l-2,19a3.21,3.21,0,0,1-1.1,2.22,2.94,2.94,0,0,1-2.3.65,2.9,2.9,0,0,1-2.27-1.32l-9.36-14.59-1.21,11.3a3.27,3.27,0,0,1-1.09,2.24,2.94,2.94,0,0,1-2.28.64A3,3,0,0,1,884.88,1978.34Z"
       id="path1331" />
    <path
       class="cls-5"
       d="M881.37,1954a3.05,3.05,0,0,1,.48,2.34l-2.51,19a2.74,2.74,0,0,1-3.41,2.61l-12.26-1.62a3.58,3.58,0,0,1-2.22-1,2.28,2.28,0,0,1-.54-1.94c.23-1.7,1.37-2.42,3.42-2.14l8.93,1.18.63-4.75-8.22-1.09q-3.07-.4-2.75-2.92a2.28,2.28,0,0,1,1-1.74,3.54,3.54,0,0,1,2.39-.33l8.22,1.09.68-5.17-8.93-1.19c-2-.27-3-1.26-2.74-3a2.3,2.3,0,0,1,1-1.74,3.63,3.63,0,0,1,2.39-.33l12.26,1.63A3,3,0,0,1,881.37,1954Z"
       id="path1333" />
    <path
       class="cls-5"
       d="M328.76,1685.35a10.84,10.84,0,0,1-.1,6.28,16,16,0,0,1-9.71,9.65,10.61,10.61,0,0,1-6.26.06,13.5,13.5,0,0,1-5.84-3.64,13.66,13.66,0,0,1-3.62-5.86,10.66,10.66,0,0,1,.11-6.25,16.08,16.08,0,0,1,9.72-9.65,10.92,10.92,0,0,1,6.28-.07,14.89,14.89,0,0,1,9.42,9.48ZM317,1681.29a9.27,9.27,0,0,0-5.3,3,9.1,9.1,0,0,0-3,5.29,6,6,0,0,0,6.28,6.34,11.57,11.57,0,0,0,8.34-8.31,6,6,0,0,0-6.31-6.32Z"
       id="path1335" />
    <path
       class="cls-5"
       d="M280.84,1669.09a3.21,3.21,0,0,1,1.1-2.23l13.94-13.09a3.28,3.28,0,0,1,2.3-1,2.9,2.9,0,0,1,2.17,1,2.87,2.87,0,0,1,.88,2.5l-2.43,17.2,8.28-7.78a3.34,3.34,0,0,1,2.28-1,2.85,2.85,0,0,1,2.17,1,2.94,2.94,0,0,1,.87,2.22,3.29,3.29,0,0,1-1.13,2.24l-13.94,13.09a3.24,3.24,0,0,1-2.28,1,2.94,2.94,0,0,1-2.17-1,2.89,2.89,0,0,1-.86-2.48l2.41-17.16-8.28,7.78a3.35,3.35,0,0,1-2.29,1,2.93,2.93,0,0,1-2.14-1A3,3,0,0,1,280.84,1669.09Z"
       id="path1337" />
    <path
       class="cls-5"
       d="M294,1648.36a3.09,3.09,0,0,1-1.15,2.09l-14.27,12.73a2.75,2.75,0,0,1-4.29-.24l-8.23-9.22a3.59,3.59,0,0,1-1.07-2.17,2.27,2.27,0,0,1,.86-1.82q1.92-1.71,4,.6l6,6.72,3.57-3.19-5.52-6.18q-2.07-2.33-.18-4a2.25,2.25,0,0,1,1.91-.65,3.58,3.58,0,0,1,2,1.3l5.52,6.19,3.89-3.48-6-6.72c-1.39-1.54-1.44-2.89-.16-4a2.25,2.25,0,0,1,1.91-.65,3.58,3.58,0,0,1,2,1.3l8.24,9.23A3,3,0,0,1,294,1648.36Z"
       id="path1339" />
    <path
       class="cls-5"
       d="M270.06,1621.65a10.81,10.81,0,0,1-.67,6.25,16,16,0,0,1-10.53,8.74,10.75,10.75,0,0,1-6.25-.51,13.59,13.59,0,0,1-5.49-4.15,13.76,13.76,0,0,1-3.07-6.16,10.63,10.63,0,0,1,.67-6.22,14.58,14.58,0,0,1,4.3-5.54,14.4,14.4,0,0,1,6.25-3.19,10.79,10.79,0,0,1,6.26.5,14.8,14.8,0,0,1,8.53,10.28Zm-11.34-5.1a9.24,9.24,0,0,0-5.55,2.51,9.11,9.11,0,0,0-3.47,5,6,6,0,0,0,5.68,6.87,11.55,11.55,0,0,0,9.06-7.52,6,6,0,0,0-5.72-6.86Z"
       id="path1341" />
    <path
       class="cls-5"
       d="M223.81,1601.16a3.2,3.2,0,0,1,1.29-2.13l15.07-11.78a3.22,3.22,0,0,1,2.38-.77,2.92,2.92,0,0,1,2.07,1.19,2.87,2.87,0,0,1,.65,2.58l-4,16.9,8.95-7a3.39,3.39,0,0,1,2.37-.81,2.89,2.89,0,0,1,2.06,1.2,3,3,0,0,1,.67,2.29A3.27,3.27,0,0,1,254,1605L239,1616.74a3.2,3.2,0,0,1-2.35.76,2.91,2.91,0,0,1-2.07-1.2,2.85,2.85,0,0,1-.63-2.54l3.94-16.89-9,7a3.26,3.26,0,0,1-2.36.78,2.88,2.88,0,0,1-2-1.2A3,3,0,0,1,223.81,1601.16Z"
       id="path1343" />
    <path
       class="cls-5"
       d="M238.81,1581.68a3,3,0,0,1-1.34,2l-15.35,11.39a3.07,3.07,0,0,1-2.28.71,3,3,0,0,1-2-1.34l-7.37-9.92a3.65,3.65,0,0,1-.87-2.25,2.25,2.25,0,0,1,1-1.74c1.38-1,2.69-.7,3.92,1l5.37,7.23,3.85-2.85-4.95-6.66c-1.23-1.67-1.17-3,.19-4a2.29,2.29,0,0,1,2-.48,3.59,3.59,0,0,1,1.9,1.49l4.94,6.65,4.19-3.11-5.37-7.23c-1.23-1.66-1.16-3,.22-4a2.29,2.29,0,0,1,2-.48,3.63,3.63,0,0,1,1.9,1.49l7.37,9.93A3,3,0,0,1,238.81,1581.68Z"
       id="path1345" />
    <path
       class="cls-5"
       d="M217.36,1552.94a10.86,10.86,0,0,1-1.23,6.16,16,16,0,0,1-11.28,7.75,10.78,10.78,0,0,1-6.18-1.07,15.06,15.06,0,0,1-7.59-11,10.6,10.6,0,0,1,1.23-6.13,14.72,14.72,0,0,1,4.78-5.13,14.57,14.57,0,0,1,6.51-2.61,10.91,10.91,0,0,1,6.19,1.06,13.45,13.45,0,0,1,5.09,4.59A13.6,13.6,0,0,1,217.36,1552.94Zm-10.83-6.11a9.32,9.32,0,0,0-5.76,2,9.15,9.15,0,0,0-3.91,4.66,5.46,5.46,0,0,0,.87,4.8,5.4,5.4,0,0,0,4.17,2.56c1.7.14,3.61-.53,5.75-2a9.2,9.2,0,0,0,3.95-4.67,6,6,0,0,0-5.07-7.35Z"
       id="path1347" />
    <path
       class="cls-5"
       d="M173.15,1528.34a3.17,3.17,0,0,1,1.48-2L190.69,1516a3.26,3.26,0,0,1,2.45-.56,2.94,2.94,0,0,1,2,1.38,2.88,2.88,0,0,1,.42,2.62L190,1535.89l9.55-6.17a3.33,3.33,0,0,1,2.43-.58,2.82,2.82,0,0,1,1.95,1.37,3,3,0,0,1,.45,2.35,3.24,3.24,0,0,1-1.52,2l-16.06,10.37a3.24,3.24,0,0,1-2.42.54,2.94,2.94,0,0,1-2-1.38,2.88,2.88,0,0,1-.4-2.59l5.46-16.46L178,1531.5a3.22,3.22,0,0,1-2.42.57,2.88,2.88,0,0,1-1.93-1.37A3,3,0,0,1,173.15,1528.34Z"
       id="path1349" />
    <path
       class="cls-5"
       d="M189.84,1510.29a3.05,3.05,0,0,1-1.51,1.85l-16.32,10a3.08,3.08,0,0,1-2.34.5,3,3,0,0,1-1.84-1.51l-6.44-10.56a3.52,3.52,0,0,1-.66-2.32,2.27,2.27,0,0,1,1.17-1.64q2.21-1.33,3.82,1.32l4.69,7.69,4.09-2.5-4.32-7.08q-1.62-2.65.55-4a2.27,2.27,0,0,1,2-.3,3.55,3.55,0,0,1,1.76,1.65l4.32,7.08,4.46-2.72-4.7-7.69c-1.08-1.77-.88-3.1.58-4a2.25,2.25,0,0,1,2-.29,3.59,3.59,0,0,1,1.76,1.65l6.44,10.55A3,3,0,0,1,189.84,1510.29Z"
       id="path1351" />
    <path
       class="cls-5"
       d="M51.23,1104.66a10.88,10.88,0,0,1-4.08,4.78,14.55,14.55,0,0,1-6.67,2.17,14.52,14.52,0,0,1-7-.89,10.71,10.71,0,0,1-4.87-3.94,15.08,15.08,0,0,1-1.25-13.35,10.64,10.64,0,0,1,4.05-4.76,14.7,14.7,0,0,1,6.68-2.15,14.46,14.46,0,0,1,6.95.89,10.9,10.9,0,0,1,4.9,3.94,13.38,13.38,0,0,1,2.2,6.49A13.61,13.61,0,0,1,51.23,1104.66Zm-6.49-10.61a9.29,9.29,0,0,0-6-1,9.08,9.08,0,0,0-5.68,2.17,6,6,0,0,0,.82,8.87q2.12,1.43,6,1.06c2.59-.25,4.49-1,5.72-2.15a6,6,0,0,0-.85-8.9Z"
       id="path1353" />
    <path
       class="cls-5"
       d="M24.58,1061.67a3.22,3.22,0,0,1,2.26-1l19.09-1.23a3.26,3.26,0,0,1,2.41.7,2.94,2.94,0,0,1,1,2.15,2.88,2.88,0,0,1-.91,2.5l-12.82,11.72,11.35-.74a3.34,3.34,0,0,1,2.4.67,2.86,2.86,0,0,1,1,2.15,2.92,2.92,0,0,1-.75,2.27,3.25,3.25,0,0,1-2.3,1l-19.08,1.24a3.18,3.18,0,0,1-2.37-.71,2.94,2.94,0,0,1-1-2.15,2.91,2.91,0,0,1,.92-2.46L38.58,1066l-11.34.74a3.27,3.27,0,0,1-2.39-.69,2.89,2.89,0,0,1-1-2.13A3,3,0,0,1,24.58,1061.67Z"
       id="path1355" />
    <path
       class="cls-5"
       d="M47.94,1054a3,3,0,0,1-2.21.88l-19.11.76a2.76,2.76,0,0,1-3.16-2.92L23,1040.4a3.59,3.59,0,0,1,.55-2.35,2.27,2.27,0,0,1,1.83-.86c1.71-.07,2.61.93,2.69,3l.36,9,4.79-.2-.33-8.28c-.09-2.07.72-3.14,2.41-3.21a2.29,2.29,0,0,1,1.89.71,3.68,3.68,0,0,1,.73,2.3l.33,8.28,5.22-.2-.36-9c-.09-2.08.73-3.14,2.44-3.21a2.23,2.23,0,0,1,1.89.71,3.57,3.57,0,0,1,.74,2.29l.49,12.36A3,3,0,0,1,47.94,1054Z"
       id="path1357" />
    <path
       class="cls-5"
       d="M46.5,1018.11a10.73,10.73,0,0,1-4.43,4.45,14.35,14.35,0,0,1-6.82,1.65,14.36,14.36,0,0,1-6.86-1.43,10.7,10.7,0,0,1-4.56-4.3,15.08,15.08,0,0,1-.22-13.4,10.61,10.61,0,0,1,4.42-4.43A14.5,14.5,0,0,1,34.85,999a14.36,14.36,0,0,1,6.86,1.42,10.89,10.89,0,0,1,4.58,4.31,14.79,14.79,0,0,1,.21,13.36ZM40.86,1007a9.32,9.32,0,0,0-5.91-1.51,9.12,9.12,0,0,0-5.83,1.72,6,6,0,0,0,.12,8.92q2,1.58,5.91,1.51A9.26,9.26,0,0,0,41,1016a6,6,0,0,0-.16-8.94Z"
       id="path1359" />
    <path
       class="cls-5"
       d="M23.73,973a3.18,3.18,0,0,1,2.34-.82l19.12.47a3.29,3.29,0,0,1,2.34.91,2.92,2.92,0,0,1,.83,2.24,2.85,2.85,0,0,1-1.13,2.4L33.42,988.71l11.37.28a3.42,3.42,0,0,1,2.34.88,2.86,2.86,0,0,1,.83,2.24A2.89,2.89,0,0,1,47,994.3a3.24,3.24,0,0,1-2.38.8l-19.12-.47a3.18,3.18,0,0,1-2.3-.91,3,3,0,0,1-.84-2.24,2.92,2.92,0,0,1,1.13-2.37l13.77-10.53-11.36-.27a3.3,3.3,0,0,1-2.32-.9,2.93,2.93,0,0,1-.82-2.22A3,3,0,0,1,23.73,973Z"
       id="path1361" />
    <path
       class="cls-5"
       d="M47.68,967.45a3,3,0,0,1-2.29.67l-19.1-.94A2.74,2.74,0,0,1,23.41,964L24,951.64a3.59,3.59,0,0,1,.76-2.29,2.25,2.25,0,0,1,1.89-.69c1.72.09,2.52,1.16,2.42,3.23l-.45,9,4.79.24.41-8.29c.1-2.07,1-3.06,2.69-3a2.27,2.27,0,0,1,1.81.88,3.57,3.57,0,0,1,.53,2.35l-.41,8.28,5.21.26.45-9c.1-2.07,1-3.07,2.72-3a2.25,2.25,0,0,1,1.82.88,3.59,3.59,0,0,1,.53,2.35l-.61,12.35A3.07,3.07,0,0,1,47.68,967.45Z"
       id="path1363" />
    <path
       class="cls-5"
       d="M49.36,931.6a10.89,10.89,0,0,1-4.86,4,14.57,14.57,0,0,1-7,.94,14.41,14.41,0,0,1-6.69-2.12,10.68,10.68,0,0,1-4.09-4.74,15,15,0,0,1,1.15-13.36,10.63,10.63,0,0,1,4.84-4,14.58,14.58,0,0,1,7-.92,14.52,14.52,0,0,1,6.69,2.11,10.94,10.94,0,0,1,4.11,4.75,14.85,14.85,0,0,1-1.15,13.32ZM44.87,920a9.3,9.3,0,0,0-5.72-2.1,9.16,9.16,0,0,0-6,1.11,6,6,0,0,0-.78,8.89c1.23,1.18,3.13,1.88,5.72,2.1a9.22,9.22,0,0,0,6-1.09,6,6,0,0,0,.75-8.91Z"
       id="path1365" />
    <path
       class="cls-5"
       d="M30.82,884.54a3.19,3.19,0,0,1,2.41-.61l19,2.19a3.3,3.3,0,0,1,2.25,1.12,3,3,0,0,1,.63,2.31,2.89,2.89,0,0,1-1.34,2.29l-14.7,9.24,11.29,1.3a3.36,3.36,0,0,1,2.25,1.09,2.84,2.84,0,0,1,.63,2.3,2.91,2.91,0,0,1-1.14,2.1,3.22,3.22,0,0,1-2.44.58l-19-2.18a3.19,3.19,0,0,1-2.21-1.12,2.93,2.93,0,0,1-.64-2.3,2.9,2.9,0,0,1,1.34-2.26l14.66-9.25L32.52,890a3.25,3.25,0,0,1-2.23-1.1,3,3,0,0,1-.62-2.29A3,3,0,0,1,30.82,884.54Z"
       id="path1367" />
    <path
       class="cls-5"
       d="M55.17,881.21a3.07,3.07,0,0,1-2.34.46L33.89,879a2.74,2.74,0,0,1-2.58-3.43L33,863.33a3.58,3.58,0,0,1,1-2.21,2.27,2.27,0,0,1,1.95-.52c1.7.24,2.4,1.38,2.12,3.44L36.8,873l4.74.66,1.16-8.21q.44-3.07,2.94-2.72a2.27,2.27,0,0,1,1.74,1,3.61,3.61,0,0,1,.31,2.39l-1.16,8.21,5.17.72L53,866.13c.28-2,1.28-3,3-2.72a2.28,2.28,0,0,1,1.73,1,3.64,3.64,0,0,1,.31,2.39l-1.72,12.25A3.07,3.07,0,0,1,55.17,881.21Z"
       id="path1369" />
  </g>
  <metadata
     id="metadata1455">
    <rdf:RDF>
      <cc:Work
         rdf:about="">
        <dc:title>white coin</dc:title>
      </cc:Work>
    </rdf:RDF>
  </metadata>
</svg>
