<?xml version="1.0" encoding="UTF-8" standalone="no"?>
<!DOCTYPE svg PUBLIC "-//W3C//DTD SVG 1.1//EN" "http://www.w3.org/Graphics/SVG/1.1/DTD/svg11.dtd">
<svg width="100%" height="100%" viewBox="0 0 512 512" version="1.1" xmlns="http://www.w3.org/2000/svg" xmlns:xlink="http://www.w3.org/1999/xlink" xml:space="preserve" xmlns:serif="http://www.serif.com/" style="fill-rule:evenodd;clip-rule:evenodd;stroke-linejoin:round;stroke-miterlimit:2;">
    <g transform="matrix(0.903071,0,0,0.903071,24.8139,24.8139)">
        <circle cx="256" cy="256" r="256" style="fill:white;"/>
        <path d="M256,0C397.29,0 512,114.71 512,256C512,397.29 397.29,512 256,512C114.71,512 0,397.29 0,256C0,114.71 114.71,0 256,0ZM256,12.694C390.284,12.694 499.306,121.716 499.306,256C499.306,390.284 390.284,499.306 256,499.306C121.716,499.306 12.694,390.284 12.694,256C12.694,121.716 121.716,12.694 256,12.694Z" style="fill:white;"/>
    </g>
    <path d="M256,0C397.29,0 512,114.71 512,256C512,397.29 397.29,512 256,512C114.71,512 0,397.29 0,256C0,114.71 114.71,0 256,0ZM256,48.635C370.448,48.635 463.365,141.552 463.365,256C463.365,370.448 370.448,463.365 256,463.365C141.552,463.365 48.635,370.448 48.635,256C48.635,141.552 141.552,48.635 256,48.635Z" style="fill:url(#_Linear1);"/>
    <g transform="matrix(0.856922,0,0,0.856922,36.6279,36.6279)">
        <path d="M256,37.479C376.605,37.479 474.521,135.395 474.521,256C474.521,376.605 376.605,474.521 256,474.521C135.395,474.521 37.479,376.605 37.479,256C37.479,135.395 135.395,37.479 256,37.479ZM217.424,357.197C217.424,347.51 220.019,340.187 225.208,335.228C230.398,330.269 237.952,327.789 247.87,327.789C257.442,327.789 264.851,330.327 270.098,335.401C275.346,340.475 277.969,347.741 277.969,357.197C277.969,366.308 275.317,373.487 270.012,378.734C264.707,383.981 257.326,386.605 247.87,386.605C238.182,386.605 230.686,384.039 225.381,378.907C220.076,373.775 217.424,366.538 217.424,357.197ZM222.96,298.036L222.96,285.235C222.96,274.164 225.324,264.534 230.052,256.346C234.78,248.158 243.43,239.451 256,230.225C268.109,221.576 276.095,214.541 279.959,209.121C283.822,203.7 285.754,197.646 285.754,190.957C285.754,183.461 282.986,177.752 277.45,173.831C271.915,169.91 264.188,167.95 254.27,167.95C236.971,167.95 217.251,173.601 195.109,184.903L176.253,147.018C201.971,132.603 229.245,125.395 258.076,125.395C281.833,125.395 300.717,131.104 314.729,142.521C328.741,153.938 335.747,169.161 335.747,188.189C335.747,200.875 332.864,211.831 327.097,221.057C321.331,230.283 310.375,240.662 294.23,252.194C283.159,260.382 276.153,266.61 273.212,270.877C270.271,275.144 268.801,280.737 268.801,287.657L268.801,298.036L222.96,298.036Z" style="fill:rgb(0,173,232);"/>
    </g>
    <defs>
        <linearGradient id="_Linear1" x1="0" y1="0" x2="1" y2="0" gradientUnits="userSpaceOnUse" gradientTransform="matrix(512,-512,512,512,0,512)"><stop offset="0" style="stop-color:rgb(105,250,188);stop-opacity:1"/><stop offset="1" style="stop-color:rgb(0,173,232);stop-opacity:1"/></linearGradient>
    </defs>
</svg>
